%TF.GenerationSoftware,KiCad,Pcbnew,9.0.0*%
%TF.CreationDate,2025-05-08T09:04:40-05:00*%
%TF.ProjectId,driver-board,64726976-6572-42d6-926f-6172642e6b69,rev?*%
%TF.SameCoordinates,Original*%
%TF.FileFunction,Soldermask,Top*%
%TF.FilePolarity,Negative*%
%FSLAX46Y46*%
G04 Gerber Fmt 4.6, Leading zero omitted, Abs format (unit mm)*
G04 Created by KiCad (PCBNEW 9.0.0) date 2025-05-08 09:04:40*
%MOMM*%
%LPD*%
G01*
G04 APERTURE LIST*
G04 Aperture macros list*
%AMRoundRect*
0 Rectangle with rounded corners*
0 $1 Rounding radius*
0 $2 $3 $4 $5 $6 $7 $8 $9 X,Y pos of 4 corners*
0 Add a 4 corners polygon primitive as box body*
4,1,4,$2,$3,$4,$5,$6,$7,$8,$9,$2,$3,0*
0 Add four circle primitives for the rounded corners*
1,1,$1+$1,$2,$3*
1,1,$1+$1,$4,$5*
1,1,$1+$1,$6,$7*
1,1,$1+$1,$8,$9*
0 Add four rect primitives between the rounded corners*
20,1,$1+$1,$2,$3,$4,$5,0*
20,1,$1+$1,$4,$5,$6,$7,0*
20,1,$1+$1,$6,$7,$8,$9,0*
20,1,$1+$1,$8,$9,$2,$3,0*%
G04 Aperture macros list end*
%ADD10R,1.500000X0.900000*%
%ADD11R,0.700000X0.700000*%
%ADD12C,6.400000*%
%ADD13R,1.400048X1.549908*%
%ADD14C,1.900000*%
%ADD15RoundRect,0.102000X-0.785000X-1.410000X0.785000X-1.410000X0.785000X1.410000X-0.785000X1.410000X0*%
%ADD16R,2.400000X3.100000*%
%ADD17RoundRect,0.070000X-1.100000X-0.250000X1.100000X-0.250000X1.100000X0.250000X-1.100000X0.250000X0*%
%ADD18C,0.770000*%
%ADD19RoundRect,0.250000X0.262500X0.450000X-0.262500X0.450000X-0.262500X-0.450000X0.262500X-0.450000X0*%
%ADD20RoundRect,0.250000X-0.262500X-0.450000X0.262500X-0.450000X0.262500X0.450000X-0.262500X0.450000X0*%
%ADD21RoundRect,0.250000X0.450000X-0.262500X0.450000X0.262500X-0.450000X0.262500X-0.450000X-0.262500X0*%
%ADD22RoundRect,0.150000X-0.587500X-0.150000X0.587500X-0.150000X0.587500X0.150000X-0.587500X0.150000X0*%
%ADD23R,3.500000X1.300000*%
%ADD24R,1.700000X1.700000*%
%ADD25O,1.700000X1.700000*%
%ADD26RoundRect,0.250000X-0.250000X-0.475000X0.250000X-0.475000X0.250000X0.475000X-0.250000X0.475000X0*%
%ADD27RoundRect,0.250000X0.475000X-0.250000X0.475000X0.250000X-0.475000X0.250000X-0.475000X-0.250000X0*%
%ADD28RoundRect,0.225000X0.225000X0.250000X-0.225000X0.250000X-0.225000X-0.250000X0.225000X-0.250000X0*%
%ADD29RoundRect,0.250000X0.650000X-0.325000X0.650000X0.325000X-0.650000X0.325000X-0.650000X-0.325000X0*%
%ADD30RoundRect,0.250000X-0.650000X0.325000X-0.650000X-0.325000X0.650000X-0.325000X0.650000X0.325000X0*%
%ADD31RoundRect,0.250000X0.250000X0.475000X-0.250000X0.475000X-0.250000X-0.475000X0.250000X-0.475000X0*%
%ADD32RoundRect,0.375000X-0.375000X0.625000X-0.375000X-0.625000X0.375000X-0.625000X0.375000X0.625000X0*%
%ADD33RoundRect,0.500000X-1.400000X0.500000X-1.400000X-0.500000X1.400000X-0.500000X1.400000X0.500000X0*%
%ADD34RoundRect,0.250000X-0.275000X-0.500000X0.275000X-0.500000X0.275000X0.500000X-0.275000X0.500000X0*%
%ADD35RoundRect,0.250000X-0.950000X-0.500000X0.950000X-0.500000X0.950000X0.500000X-0.950000X0.500000X0*%
%ADD36O,1.200000X1.750000*%
%ADD37RoundRect,0.250000X0.350000X0.625000X-0.350000X0.625000X-0.350000X-0.625000X0.350000X-0.625000X0*%
G04 APERTURE END LIST*
D10*
%TO.C,U4*%
X139600000Y-83100000D03*
X139600000Y-84600000D03*
X139600000Y-86100000D03*
X139600000Y-87600000D03*
X139600000Y-89100000D03*
X139600000Y-90600000D03*
X139600000Y-92100000D03*
X139600000Y-93600000D03*
X139600000Y-95100000D03*
X157100000Y-95100000D03*
X157100000Y-93600000D03*
X157100000Y-92100000D03*
X157100000Y-90600000D03*
X157100000Y-89100000D03*
X157100000Y-87600000D03*
X157100000Y-86100000D03*
X157100000Y-84600000D03*
X157100000Y-83100000D03*
D11*
X148210000Y-88200000D03*
X149310000Y-88200000D03*
X150410000Y-88200000D03*
X148210000Y-89300000D03*
X149310000Y-89300000D03*
X150410000Y-89300000D03*
X148210000Y-90400000D03*
X149310000Y-90400000D03*
X150410000Y-90400000D03*
%TD*%
D12*
%TO.C,H2*%
X164100000Y-117350000D03*
%TD*%
%TO.C,H1*%
X67400000Y-117350000D03*
%TD*%
D13*
%TO.C,SW1*%
X64799998Y-107649996D03*
X69300000Y-107649996D03*
X64799998Y-99700000D03*
X69300000Y-99700000D03*
%TD*%
D14*
%TO.C,J11*%
X69100000Y-89800000D03*
X74100000Y-89800000D03*
X69100000Y-86300000D03*
X74100000Y-86300000D03*
%TD*%
D15*
%TO.C,F1*%
X80670000Y-85040000D03*
X80670000Y-91360000D03*
X94130000Y-85040000D03*
X94130000Y-91360000D03*
%TD*%
D16*
%TO.C,U3*%
X109750000Y-94600000D03*
D17*
X106875000Y-92695000D03*
X106875000Y-93965000D03*
X106875000Y-95235000D03*
X106875000Y-96505000D03*
X112625000Y-96505000D03*
X112625000Y-95235000D03*
X112625000Y-93965000D03*
X112625000Y-92695000D03*
D18*
X109100000Y-93300000D03*
X109100000Y-94600000D03*
X109100000Y-95900000D03*
X110400000Y-93300000D03*
X110400000Y-94600000D03*
X110400000Y-95900000D03*
%TD*%
D16*
%TO.C,U2*%
X110225000Y-85235000D03*
D17*
X107350000Y-83330000D03*
X107350000Y-84600000D03*
X107350000Y-85870000D03*
X107350000Y-87140000D03*
X113100000Y-87140000D03*
X113100000Y-85870000D03*
X113100000Y-84600000D03*
X113100000Y-83330000D03*
D18*
X109575000Y-83935000D03*
X109575000Y-85235000D03*
X109575000Y-86535000D03*
X110875000Y-83935000D03*
X110875000Y-85235000D03*
X110875000Y-86535000D03*
%TD*%
D19*
%TO.C,R28*%
X116712500Y-101200000D03*
X114887500Y-101200000D03*
%TD*%
D20*
%TO.C,R27*%
X114887500Y-98250000D03*
X116712500Y-98250000D03*
%TD*%
%TO.C,R26*%
X111487500Y-89300000D03*
X113312500Y-89300000D03*
%TD*%
%TO.C,R25*%
X115300000Y-89300000D03*
X117125000Y-89300000D03*
%TD*%
%TO.C,R24*%
X160687500Y-88600000D03*
X162512500Y-88600000D03*
%TD*%
D21*
%TO.C,R23*%
X161100000Y-85800000D03*
X161100000Y-83975000D03*
%TD*%
D20*
%TO.C,R17*%
X131487500Y-88500000D03*
X133312500Y-88500000D03*
%TD*%
D22*
%TO.C,Q10*%
X164625000Y-88650000D03*
X164625000Y-90550000D03*
X166500000Y-89600000D03*
%TD*%
%TO.C,Q9*%
X164625000Y-84025000D03*
X164625000Y-85925000D03*
X166500000Y-84975000D03*
%TD*%
D23*
%TO.C,L2*%
X120800000Y-93600000D03*
X120800000Y-95800000D03*
%TD*%
%TO.C,L1*%
X120800000Y-84100000D03*
X120800000Y-86300000D03*
%TD*%
D24*
%TO.C,J9*%
X165800000Y-95800000D03*
D25*
X165800000Y-98340000D03*
X165800000Y-100880000D03*
X165800000Y-103420000D03*
X165800000Y-105960000D03*
X165800000Y-108500000D03*
%TD*%
D26*
%TO.C,C25*%
X126200000Y-97800000D03*
X128100000Y-97800000D03*
%TD*%
%TO.C,C24*%
X126200000Y-94790000D03*
X128100000Y-94790000D03*
%TD*%
%TO.C,C23*%
X126200000Y-91780000D03*
X128100000Y-91780000D03*
%TD*%
D27*
%TO.C,C22*%
X115800000Y-93850000D03*
X115800000Y-91950000D03*
%TD*%
D26*
%TO.C,C21*%
X118750000Y-98600000D03*
X120650000Y-98600000D03*
%TD*%
D28*
%TO.C,C20*%
X133200000Y-83300000D03*
X131650000Y-83300000D03*
%TD*%
%TO.C,C19*%
X133200000Y-85810000D03*
X131650000Y-85810000D03*
%TD*%
D29*
%TO.C,C18*%
X102400000Y-93900000D03*
X102400000Y-90950000D03*
%TD*%
%TO.C,C17*%
X99400000Y-93975000D03*
X99400000Y-91025000D03*
%TD*%
D26*
%TO.C,C16*%
X126100000Y-89300000D03*
X128000000Y-89300000D03*
%TD*%
%TO.C,C15*%
X126100000Y-86290000D03*
X128000000Y-86290000D03*
%TD*%
%TO.C,C14*%
X126100000Y-83280000D03*
X128000000Y-83280000D03*
%TD*%
%TO.C,C13*%
X118950000Y-89300000D03*
X120850000Y-89300000D03*
%TD*%
D27*
%TO.C,C12*%
X116200000Y-85050000D03*
X116200000Y-83150000D03*
%TD*%
D30*
%TO.C,C11*%
X99500000Y-83150000D03*
X99500000Y-86100000D03*
%TD*%
%TO.C,C10*%
X102850000Y-83150000D03*
X102850000Y-86100000D03*
%TD*%
D31*
%TO.C,C3*%
X133350000Y-91100000D03*
X131450000Y-91100000D03*
%TD*%
D32*
%TO.C,Q3*%
X96328571Y-104700000D03*
D33*
X98628571Y-111000000D03*
D32*
X98628571Y-104700000D03*
X100928571Y-104700000D03*
%TD*%
D34*
%TO.C,D3*%
X97453571Y-113900000D03*
D35*
X99828571Y-113900000D03*
%TD*%
D36*
%TO.C,J3*%
X97728571Y-118800000D03*
D37*
X99728571Y-118800000D03*
%TD*%
D21*
%TO.C,R5*%
X100928571Y-100287500D03*
X100928571Y-102112500D03*
%TD*%
D20*
%TO.C,R6*%
X98141071Y-101300000D03*
X96316071Y-101300000D03*
%TD*%
D36*
%TO.C,J7*%
X143385714Y-118800000D03*
D37*
X145385714Y-118800000D03*
%TD*%
D34*
%TO.C,D7*%
X143110714Y-113900000D03*
D35*
X145485714Y-113900000D03*
%TD*%
D21*
%TO.C,R13*%
X146585714Y-100287500D03*
X146585714Y-102112500D03*
%TD*%
D32*
%TO.C,Q7*%
X141985714Y-104700000D03*
D33*
X144285714Y-111000000D03*
D32*
X144285714Y-104700000D03*
X146585714Y-104700000D03*
%TD*%
D20*
%TO.C,R14*%
X143798214Y-101300000D03*
X141973214Y-101300000D03*
%TD*%
D34*
%TO.C,D8*%
X154525000Y-113900000D03*
D35*
X156900000Y-113900000D03*
%TD*%
D36*
%TO.C,J8*%
X154800000Y-118800000D03*
D37*
X156800000Y-118800000D03*
%TD*%
D21*
%TO.C,R15*%
X158000000Y-100287500D03*
X158000000Y-102112500D03*
%TD*%
D32*
%TO.C,Q8*%
X153400000Y-104700000D03*
D33*
X155700000Y-111000000D03*
D32*
X155700000Y-104700000D03*
X158000000Y-104700000D03*
%TD*%
D20*
%TO.C,R16*%
X155212500Y-101300000D03*
X153387500Y-101300000D03*
%TD*%
D34*
%TO.C,D2*%
X86039286Y-113900000D03*
D35*
X88414286Y-113900000D03*
%TD*%
D36*
%TO.C,J2*%
X86314286Y-118800000D03*
D37*
X88314286Y-118800000D03*
%TD*%
D21*
%TO.C,R3*%
X89514286Y-100287500D03*
X89514286Y-102112500D03*
%TD*%
D32*
%TO.C,Q2*%
X84914286Y-104700000D03*
D33*
X87214286Y-111000000D03*
D32*
X87214286Y-104700000D03*
X89514286Y-104700000D03*
%TD*%
D20*
%TO.C,R4*%
X86726786Y-101300000D03*
X84901786Y-101300000D03*
%TD*%
D36*
%TO.C,J1*%
X74900000Y-118800000D03*
D37*
X76900000Y-118800000D03*
%TD*%
D36*
%TO.C,J5*%
X120557143Y-118800000D03*
D37*
X122557143Y-118800000D03*
%TD*%
D32*
%TO.C,Q5*%
X119157143Y-104700000D03*
D33*
X121457143Y-111000000D03*
D32*
X121457143Y-104700000D03*
X123757143Y-104700000D03*
%TD*%
D34*
%TO.C,D5*%
X120282143Y-113900000D03*
D35*
X122657143Y-113900000D03*
%TD*%
D21*
%TO.C,R9*%
X123757143Y-100287500D03*
X123757143Y-102112500D03*
%TD*%
D20*
%TO.C,R10*%
X120969643Y-101300000D03*
X119144643Y-101300000D03*
%TD*%
D34*
%TO.C,D4*%
X108867857Y-113900000D03*
D35*
X111242857Y-113900000D03*
%TD*%
D36*
%TO.C,J4*%
X109142857Y-118800000D03*
D37*
X111142857Y-118800000D03*
%TD*%
D21*
%TO.C,R7*%
X112342857Y-100287500D03*
X112342857Y-102112500D03*
%TD*%
D32*
%TO.C,Q4*%
X107742857Y-104700000D03*
D33*
X110042857Y-111000000D03*
D32*
X110042857Y-104700000D03*
X112342857Y-104700000D03*
%TD*%
D20*
%TO.C,R8*%
X109555357Y-101300000D03*
X107730357Y-101300000D03*
%TD*%
D34*
%TO.C,D1*%
X74625000Y-113900000D03*
D35*
X77000000Y-113900000D03*
%TD*%
D20*
%TO.C,R12*%
X132383929Y-101300000D03*
X130558929Y-101300000D03*
%TD*%
D34*
%TO.C,D6*%
X131696429Y-113900000D03*
D35*
X134071429Y-113900000D03*
%TD*%
D36*
%TO.C,J6*%
X131971429Y-118800000D03*
D37*
X133971429Y-118800000D03*
%TD*%
D21*
%TO.C,R11*%
X135171429Y-100287500D03*
X135171429Y-102112500D03*
%TD*%
D32*
%TO.C,Q6*%
X130571429Y-104700000D03*
D33*
X132871429Y-111000000D03*
D32*
X132871429Y-104700000D03*
X135171429Y-104700000D03*
%TD*%
%TO.C,Q1*%
X73500000Y-104700000D03*
D33*
X75800000Y-111000000D03*
D32*
X75800000Y-104700000D03*
X78100000Y-104700000D03*
%TD*%
D21*
%TO.C,R1*%
X78100000Y-100287500D03*
X78100000Y-102112500D03*
%TD*%
D20*
%TO.C,R2*%
X75312500Y-101300000D03*
X73487500Y-101300000D03*
%TD*%
M02*
