%TF.GenerationSoftware,KiCad,Pcbnew,9.0.0*%
%TF.CreationDate,2025-06-20T07:10:20-05:00*%
%TF.ProjectId,driver-board,64726976-6572-42d6-926f-6172642e6b69,rev?*%
%TF.SameCoordinates,Original*%
%TF.FileFunction,Soldermask,Top*%
%TF.FilePolarity,Negative*%
%FSLAX46Y46*%
G04 Gerber Fmt 4.6, Leading zero omitted, Abs format (unit mm)*
G04 Created by KiCad (PCBNEW 9.0.0) date 2025-06-20 07:10:20*
%MOMM*%
%LPD*%
G01*
G04 APERTURE LIST*
G04 Aperture macros list*
%AMRoundRect*
0 Rectangle with rounded corners*
0 $1 Rounding radius*
0 $2 $3 $4 $5 $6 $7 $8 $9 X,Y pos of 4 corners*
0 Add a 4 corners polygon primitive as box body*
4,1,4,$2,$3,$4,$5,$6,$7,$8,$9,$2,$3,0*
0 Add four circle primitives for the rounded corners*
1,1,$1+$1,$2,$3*
1,1,$1+$1,$4,$5*
1,1,$1+$1,$6,$7*
1,1,$1+$1,$8,$9*
0 Add four rect primitives between the rounded corners*
20,1,$1+$1,$2,$3,$4,$5,0*
20,1,$1+$1,$4,$5,$6,$7,0*
20,1,$1+$1,$6,$7,$8,$9,0*
20,1,$1+$1,$8,$9,$2,$3,0*%
G04 Aperture macros list end*
%ADD10RoundRect,0.250000X0.450000X-0.262500X0.450000X0.262500X-0.450000X0.262500X-0.450000X-0.262500X0*%
%ADD11RoundRect,0.250000X0.350000X0.625000X-0.350000X0.625000X-0.350000X-0.625000X0.350000X-0.625000X0*%
%ADD12O,1.200000X1.750000*%
%ADD13C,6.400000*%
%ADD14R,3.500000X1.300000*%
%ADD15RoundRect,0.250000X-0.262500X-0.450000X0.262500X-0.450000X0.262500X0.450000X-0.262500X0.450000X0*%
%ADD16C,1.600000*%
%ADD17R,2.000000X4.000000*%
%ADD18O,2.000000X3.300000*%
%ADD19O,3.500000X2.000000*%
%ADD20RoundRect,0.250000X-0.950000X-0.500000X0.950000X-0.500000X0.950000X0.500000X-0.950000X0.500000X0*%
%ADD21RoundRect,0.250000X-0.275000X-0.500000X0.275000X-0.500000X0.275000X0.500000X-0.275000X0.500000X0*%
%ADD22RoundRect,0.250000X-0.650000X0.325000X-0.650000X-0.325000X0.650000X-0.325000X0.650000X0.325000X0*%
%ADD23RoundRect,0.150000X-0.587500X-0.150000X0.587500X-0.150000X0.587500X0.150000X-0.587500X0.150000X0*%
%ADD24RoundRect,0.250000X0.250000X0.475000X-0.250000X0.475000X-0.250000X-0.475000X0.250000X-0.475000X0*%
%ADD25RoundRect,0.150000X-0.150000X0.512500X-0.150000X-0.512500X0.150000X-0.512500X0.150000X0.512500X0*%
%ADD26RoundRect,0.102000X-0.785000X-1.410000X0.785000X-1.410000X0.785000X1.410000X-0.785000X1.410000X0*%
%ADD27R,2.400000X3.100000*%
%ADD28RoundRect,0.070000X-1.100000X-0.250000X1.100000X-0.250000X1.100000X0.250000X-1.100000X0.250000X0*%
%ADD29C,0.770000*%
%ADD30RoundRect,0.225000X0.225000X0.250000X-0.225000X0.250000X-0.225000X-0.250000X0.225000X-0.250000X0*%
%ADD31R,1.700000X1.700000*%
%ADD32O,1.700000X1.700000*%
%ADD33RoundRect,0.250000X-0.250000X-0.475000X0.250000X-0.475000X0.250000X0.475000X-0.250000X0.475000X0*%
%ADD34R,1.400048X1.549908*%
%ADD35RoundRect,0.250000X0.475000X-0.250000X0.475000X0.250000X-0.475000X0.250000X-0.475000X-0.250000X0*%
%ADD36C,2.400000*%
%ADD37RoundRect,0.250000X-0.650000X-1.550000X0.650000X-1.550000X0.650000X1.550000X-0.650000X1.550000X0*%
%ADD38O,1.800000X3.600000*%
%ADD39RoundRect,0.250000X0.262500X0.450000X-0.262500X0.450000X-0.262500X-0.450000X0.262500X-0.450000X0*%
%ADD40R,1.500000X0.900000*%
%ADD41R,0.700000X0.700000*%
G04 APERTURE END LIST*
D10*
%TO.C,R1*%
X78100000Y-102112500D03*
X78100000Y-100287500D03*
%TD*%
D11*
%TO.C,J6*%
X133971429Y-118800000D03*
D12*
X131971429Y-118800000D03*
%TD*%
D13*
%TO.C,H2*%
X164100000Y-117350000D03*
%TD*%
D14*
%TO.C,L1*%
X112790000Y-91950000D03*
X112790000Y-94150000D03*
%TD*%
D15*
%TO.C,R16*%
X153387500Y-101300000D03*
X155212500Y-101300000D03*
%TD*%
D16*
%TO.C,J10*%
X66750000Y-88760000D03*
D17*
X75750000Y-88760000D03*
D18*
X69750000Y-88760000D03*
D19*
X68750000Y-84260000D03*
X68750000Y-93260000D03*
%TD*%
D15*
%TO.C,R25*%
X107290000Y-97150000D03*
X109115000Y-97150000D03*
%TD*%
%TO.C,R6*%
X96316071Y-101300000D03*
X98141071Y-101300000D03*
%TD*%
D20*
%TO.C,D7*%
X145485714Y-113900000D03*
D21*
X143110714Y-113900000D03*
%TD*%
D22*
%TO.C,C10*%
X102850000Y-83150000D03*
X102850000Y-86100000D03*
%TD*%
D23*
%TO.C,Q9*%
X164625000Y-84025000D03*
X164625000Y-85925000D03*
X166500000Y-84975000D03*
%TD*%
%TO.C,Q10*%
X164625000Y-88650000D03*
X164625000Y-90550000D03*
X166500000Y-89600000D03*
%TD*%
D10*
%TO.C,R11*%
X135171429Y-102112500D03*
X135171429Y-100287500D03*
%TD*%
D24*
%TO.C,C3*%
X133350000Y-91100000D03*
X131450000Y-91100000D03*
%TD*%
D25*
%TO.C,Q14*%
X111098571Y-107612500D03*
X109198571Y-107612500D03*
X110148571Y-109887500D03*
%TD*%
%TO.C,Q13*%
X99653214Y-107612500D03*
X97753214Y-107612500D03*
X98703214Y-109887500D03*
%TD*%
D10*
%TO.C,R9*%
X123757143Y-102112500D03*
X123757143Y-100287500D03*
%TD*%
D26*
%TO.C,F1*%
X80670000Y-85040000D03*
X80670000Y-91360000D03*
X94130000Y-85040000D03*
X94130000Y-91360000D03*
%TD*%
D20*
%TO.C,D8*%
X156900000Y-113900000D03*
D21*
X154525000Y-113900000D03*
%TD*%
D27*
%TO.C,U2*%
X102215000Y-93085000D03*
D28*
X99340000Y-91180000D03*
X99340000Y-92450000D03*
X99340000Y-93720000D03*
X99340000Y-94990000D03*
X105090000Y-94990000D03*
X105090000Y-93720000D03*
X105090000Y-92450000D03*
X105090000Y-91180000D03*
D29*
X101565000Y-91785000D03*
X101565000Y-93085000D03*
X101565000Y-94385000D03*
X102865000Y-91785000D03*
X102865000Y-93085000D03*
X102865000Y-94385000D03*
%TD*%
D30*
%TO.C,C20*%
X133200000Y-83300000D03*
X131650000Y-83300000D03*
%TD*%
D10*
%TO.C,R15*%
X158000000Y-102112500D03*
X158000000Y-100287500D03*
%TD*%
D30*
%TO.C,C19*%
X133200000Y-85810000D03*
X131650000Y-85810000D03*
%TD*%
D25*
%TO.C,Q16*%
X133989286Y-107612500D03*
X132089286Y-107612500D03*
X133039286Y-109887500D03*
%TD*%
%TO.C,Q17*%
X145434643Y-107612500D03*
X143534643Y-107612500D03*
X144484643Y-109887500D03*
%TD*%
D20*
%TO.C,D5*%
X122657143Y-113900000D03*
D21*
X120282143Y-113900000D03*
%TD*%
D31*
%TO.C,J9*%
X165800000Y-95800000D03*
D32*
X165800000Y-98340000D03*
X165800000Y-100880000D03*
X165800000Y-103420000D03*
X165800000Y-105960000D03*
X165800000Y-108500000D03*
%TD*%
D10*
%TO.C,R5*%
X100928571Y-102112500D03*
X100928571Y-100287500D03*
%TD*%
D20*
%TO.C,D1*%
X77000000Y-113900000D03*
D21*
X74625000Y-113900000D03*
%TD*%
D11*
%TO.C,J4*%
X111142857Y-118800000D03*
D12*
X109142857Y-118800000D03*
%TD*%
D15*
%TO.C,R12*%
X130558929Y-101300000D03*
X132383929Y-101300000D03*
%TD*%
%TO.C,R10*%
X119144643Y-101300000D03*
X120969643Y-101300000D03*
%TD*%
D13*
%TO.C,H1*%
X67400000Y-117350000D03*
%TD*%
D15*
%TO.C,R27*%
X114887500Y-98250000D03*
X116712500Y-98250000D03*
%TD*%
D33*
%TO.C,C14*%
X126100000Y-83280000D03*
X128000000Y-83280000D03*
%TD*%
D25*
%TO.C,Q15*%
X122543929Y-107612500D03*
X120643929Y-107612500D03*
X121593929Y-109887500D03*
%TD*%
D10*
%TO.C,R7*%
X112342857Y-102112500D03*
X112342857Y-100287500D03*
%TD*%
D11*
%TO.C,J7*%
X145385714Y-118800000D03*
D12*
X143385714Y-118800000D03*
%TD*%
D11*
%TO.C,J1*%
X76900000Y-118800000D03*
D12*
X74900000Y-118800000D03*
%TD*%
D10*
%TO.C,R13*%
X146585714Y-102112500D03*
X146585714Y-100287500D03*
%TD*%
D15*
%TO.C,R24*%
X160687500Y-88600000D03*
X162512500Y-88600000D03*
%TD*%
%TO.C,R17*%
X131487500Y-88500000D03*
X133312500Y-88500000D03*
%TD*%
D11*
%TO.C,J5*%
X122557143Y-118800000D03*
D12*
X120557143Y-118800000D03*
%TD*%
D34*
%TO.C,SW1*%
X64799998Y-107649996D03*
X69300000Y-107649996D03*
X64799998Y-99700000D03*
X69300000Y-99700000D03*
%TD*%
D15*
%TO.C,R14*%
X141973214Y-101300000D03*
X143798214Y-101300000D03*
%TD*%
D33*
%TO.C,C15*%
X126100000Y-86290000D03*
X128000000Y-86290000D03*
%TD*%
D35*
%TO.C,C12*%
X108190000Y-92900000D03*
X108190000Y-91000000D03*
%TD*%
D25*
%TO.C,Q12*%
X88207857Y-107612500D03*
X86307857Y-107612500D03*
X87257857Y-109887500D03*
%TD*%
D33*
%TO.C,C13*%
X110940000Y-97150000D03*
X112840000Y-97150000D03*
%TD*%
D20*
%TO.C,D6*%
X134071429Y-113900000D03*
D21*
X131696429Y-113900000D03*
%TD*%
D15*
%TO.C,R8*%
X107730357Y-101300000D03*
X109555357Y-101300000D03*
%TD*%
%TO.C,R26*%
X103477500Y-97150000D03*
X105302500Y-97150000D03*
%TD*%
D25*
%TO.C,Q11*%
X76762500Y-107612500D03*
X74862500Y-107612500D03*
X75812500Y-109887500D03*
%TD*%
D10*
%TO.C,R3*%
X89514286Y-102112500D03*
X89514286Y-100287500D03*
%TD*%
D33*
%TO.C,C16*%
X126100000Y-89300000D03*
X128000000Y-89300000D03*
%TD*%
D36*
%TO.C,J12*%
X108630000Y-86290000D03*
X121440000Y-86290000D03*
D37*
X113130000Y-86290000D03*
D38*
X116940000Y-86290000D03*
%TD*%
D39*
%TO.C,R28*%
X116712500Y-101200000D03*
X114887500Y-101200000D03*
%TD*%
D20*
%TO.C,D2*%
X88414286Y-113900000D03*
D21*
X86039286Y-113900000D03*
%TD*%
D11*
%TO.C,J8*%
X156800000Y-118800000D03*
D12*
X154800000Y-118800000D03*
%TD*%
D40*
%TO.C,U4*%
X139600000Y-83100000D03*
X139600000Y-84600000D03*
X139600000Y-86100000D03*
X139600000Y-87600000D03*
X139600000Y-89100000D03*
X139600000Y-90600000D03*
X139600000Y-92100000D03*
X139600000Y-93600000D03*
X139600000Y-95100000D03*
X157100000Y-95100000D03*
X157100000Y-93600000D03*
X157100000Y-92100000D03*
X157100000Y-90600000D03*
X157100000Y-89100000D03*
X157100000Y-87600000D03*
X157100000Y-86100000D03*
X157100000Y-84600000D03*
X157100000Y-83100000D03*
D41*
X148210000Y-88200000D03*
X149310000Y-88200000D03*
X150410000Y-88200000D03*
X148210000Y-89300000D03*
X149310000Y-89300000D03*
X150410000Y-89300000D03*
X148210000Y-90400000D03*
X149310000Y-90400000D03*
X150410000Y-90400000D03*
%TD*%
D10*
%TO.C,R23*%
X161100000Y-85800000D03*
X161100000Y-83975000D03*
%TD*%
D25*
%TO.C,Q18*%
X156880000Y-107612500D03*
X154980000Y-107612500D03*
X155930000Y-109887500D03*
%TD*%
D15*
%TO.C,R2*%
X73487500Y-101300000D03*
X75312500Y-101300000D03*
%TD*%
D20*
%TO.C,D4*%
X111242857Y-113900000D03*
D21*
X108867857Y-113900000D03*
%TD*%
D22*
%TO.C,C11*%
X99500000Y-83150000D03*
X99500000Y-86100000D03*
%TD*%
D11*
%TO.C,J2*%
X88314286Y-118800000D03*
D12*
X86314286Y-118800000D03*
%TD*%
D20*
%TO.C,D3*%
X99828571Y-113900000D03*
D21*
X97453571Y-113900000D03*
%TD*%
D11*
%TO.C,J3*%
X99728571Y-118800000D03*
D12*
X97728571Y-118800000D03*
%TD*%
D15*
%TO.C,R4*%
X84901786Y-101300000D03*
X86726786Y-101300000D03*
%TD*%
M02*
