M48
; DRILL file {KiCad 9.0.0} date 2025-06-20T07:10:22-0500
; FORMAT={-:-/ absolute / inch / decimal}
; #@! TF.CreationDate,2025-06-20T07:10:22-05:00
; #@! TF.GenerationSoftware,Kicad,Pcbnew,9.0.0
; #@! TF.FileFunction,Plated,1,2,PTH
FMAT,2
INCH
; #@! TA.AperFunction,Plated,PTH,ViaDrill
T1C0.0118
; #@! TA.AperFunction,Plated,PTH,ComponentDrill
T2C0.0118
; #@! TA.AperFunction,Plated,PTH,ComponentDrill
T3C0.0130
; #@! TA.AperFunction,Plated,PTH,ComponentDrill
T4C0.0295
; #@! TA.AperFunction,Plated,PTH,ComponentDrill
T5C0.0394
; #@! TA.AperFunction,Plated,PTH,ComponentDrill
T6C0.0472
; #@! TA.AperFunction,Plated,PTH,ComponentDrill
T7C0.1260
%
G90
G05
T1
X2.7795Y-3.8307
X2.8504Y-3.874
X2.8937Y-4.252
X3.0472Y-3.7795
X3.2795Y-3.5315
X3.311Y-4.252
X3.3268Y-3.7559
X3.4213Y-3.7992
X3.5276Y-3.5079
X3.5866Y-3.7047
X3.6339Y-3.3819
X3.7756Y-4.252
X3.8031Y-3.8228
X3.8583Y-3.5118
X4.1772Y-4.252
X4.2642Y-3.7594
X4.3409Y-3.7079
X4.3819Y-3.4646
X4.4713Y-3.8945
X4.5028Y-3.9177
X4.5886Y-4.0331
X4.6654Y-4.252
X4.9134Y-3.5
X4.9567Y-3.9213
X5.1063Y-3.4882
X5.122Y-3.6732
X5.122Y-4.252
X5.1575Y-3.8031
X5.2205Y-3.8386
X5.4138Y-3.9307
X5.5512Y-3.3819
X5.5748Y-4.252
X5.6594Y-3.8717
X5.6693Y-3.7402
X5.752Y-3.8346
X5.8346Y-3.7795
X5.9173Y-3.6496
X5.9409Y-4.2362
X5.9606Y-3.2913
X5.9646Y-3.9764
X5.9685Y-3.3307
X6.0394Y-3.3976
X6.252Y-3.2913
X6.5512Y-3.3071
X6.5906Y-3.5669
T2
X5.835Y-3.4941
X5.835Y-3.5374
X5.8567Y-3.4724
X5.8567Y-3.5157
X5.8567Y-3.5591
X5.8783Y-3.4941
X5.8783Y-3.5374
X5.9Y-3.4724
X5.9Y-3.5157
X5.9Y-3.5591
X5.9217Y-3.4941
X5.9217Y-3.5374
T3
X3.9986Y-3.6136
X3.9986Y-3.6648
X3.9986Y-3.7159
X4.0498Y-3.6136
X4.0498Y-3.6648
X4.0498Y-3.7159
T4
X2.9488Y-4.6772
X3.0276Y-4.6772
X3.3982Y-4.6772
X3.4769Y-4.6772
X3.8476Y-4.6772
X3.9263Y-4.6772
X4.297Y-4.6772
X4.3757Y-4.6772
X4.7463Y-4.6772
X4.8251Y-4.6772
X5.1957Y-4.6772
X5.2745Y-4.6772
X5.6451Y-4.6772
X5.7238Y-4.6772
X6.0945Y-4.6772
X6.1732Y-4.6772
T5
X6.5276Y-3.7717
X6.5276Y-3.8717
X6.5276Y-3.9717
X6.5276Y-4.0717
X6.5276Y-4.1717
X6.5276Y-4.2717
T6
X4.4539Y-3.3972
X4.6039Y-3.3972
T7
X2.6535Y-4.6201
X6.4606Y-4.6201
T5
G00X2.7362Y-3.3173
M15
G01X2.6772Y-3.3173
M16
G05
G00X2.7362Y-3.6717
M15
G01X2.6772Y-3.6717
M16
G05
G00X2.7461Y-3.4689
M15
G01X2.7461Y-3.5201
M16
G05
G00X2.9823Y-3.4551
M15
G01X2.9823Y-3.5339
M16
G05
M30
