%TF.GenerationSoftware,KiCad,Pcbnew,9.0.0*%
%TF.CreationDate,2025-06-20T07:10:20-05:00*%
%TF.ProjectId,driver-board,64726976-6572-42d6-926f-6172642e6b69,rev?*%
%TF.SameCoordinates,Original*%
%TF.FileFunction,Copper,L2,Bot*%
%TF.FilePolarity,Positive*%
%FSLAX46Y46*%
G04 Gerber Fmt 4.6, Leading zero omitted, Abs format (unit mm)*
G04 Created by KiCad (PCBNEW 9.0.0) date 2025-06-20 07:10:20*
%MOMM*%
%LPD*%
G01*
G04 APERTURE LIST*
G04 Aperture macros list*
%AMRoundRect*
0 Rectangle with rounded corners*
0 $1 Rounding radius*
0 $2 $3 $4 $5 $6 $7 $8 $9 X,Y pos of 4 corners*
0 Add a 4 corners polygon primitive as box body*
4,1,4,$2,$3,$4,$5,$6,$7,$8,$9,$2,$3,0*
0 Add four circle primitives for the rounded corners*
1,1,$1+$1,$2,$3*
1,1,$1+$1,$4,$5*
1,1,$1+$1,$6,$7*
1,1,$1+$1,$8,$9*
0 Add four rect primitives between the rounded corners*
20,1,$1+$1,$2,$3,$4,$5,0*
20,1,$1+$1,$4,$5,$6,$7,0*
20,1,$1+$1,$6,$7,$8,$9,0*
20,1,$1+$1,$8,$9,$2,$3,0*%
G04 Aperture macros list end*
%TA.AperFunction,ComponentPad*%
%ADD10RoundRect,0.250000X0.350000X0.625000X-0.350000X0.625000X-0.350000X-0.625000X0.350000X-0.625000X0*%
%TD*%
%TA.AperFunction,ComponentPad*%
%ADD11O,1.200000X1.750000*%
%TD*%
%TA.AperFunction,ComponentPad*%
%ADD12C,6.400000*%
%TD*%
%TA.AperFunction,ComponentPad*%
%ADD13R,2.000000X4.000000*%
%TD*%
%TA.AperFunction,ComponentPad*%
%ADD14O,2.000000X3.300000*%
%TD*%
%TA.AperFunction,ComponentPad*%
%ADD15O,3.500000X2.000000*%
%TD*%
%TA.AperFunction,ComponentPad*%
%ADD16C,0.630000*%
%TD*%
%TA.AperFunction,SMDPad,CuDef*%
%ADD17R,2.600000X3.300000*%
%TD*%
%TA.AperFunction,ComponentPad*%
%ADD18R,1.700000X1.700000*%
%TD*%
%TA.AperFunction,ComponentPad*%
%ADD19O,1.700000X1.700000*%
%TD*%
%TA.AperFunction,ComponentPad*%
%ADD20RoundRect,0.250000X-0.650000X-1.550000X0.650000X-1.550000X0.650000X1.550000X-0.650000X1.550000X0*%
%TD*%
%TA.AperFunction,ComponentPad*%
%ADD21O,1.800000X3.600000*%
%TD*%
%TA.AperFunction,ComponentPad*%
%ADD22C,0.400000*%
%TD*%
%TA.AperFunction,ViaPad*%
%ADD23C,0.600000*%
%TD*%
%TA.AperFunction,Conductor*%
%ADD24C,0.500000*%
%TD*%
%TA.AperFunction,Conductor*%
%ADD25C,0.200000*%
%TD*%
G04 APERTURE END LIST*
D10*
%TO.P,J6,1,Pin_1*%
%TO.N,+12V*%
X133971429Y-118800000D03*
D11*
%TO.P,J6,2,Pin_2*%
%TO.N,Net-(D6-A)*%
X131971429Y-118800000D03*
%TD*%
D12*
%TO.P,H2,1,1*%
%TO.N,GND*%
X164100000Y-117350000D03*
%TD*%
D13*
%TO.P,J10,1*%
%TO.N,Net-(F1-Pad1_1)*%
X75750000Y-88760000D03*
D14*
%TO.P,J10,2*%
%TO.N,GND*%
X69750000Y-88760000D03*
D15*
%TO.P,J10,MP,MountPin*%
X68750000Y-84260000D03*
X68750000Y-93260000D03*
%TD*%
D16*
%TO.P,U2,9,PAD*%
%TO.N,GND*%
X101565000Y-91785000D03*
X101565000Y-93085000D03*
X101565000Y-94385000D03*
D17*
X102215000Y-93085000D03*
D16*
X102865000Y-91785000D03*
X102865000Y-93085000D03*
X102865000Y-94385000D03*
%TD*%
D18*
%TO.P,J9,1,Pin_1*%
%TO.N,+3.3V*%
X165800000Y-95800000D03*
D19*
%TO.P,J9,2,Pin_2*%
%TO.N,/TXD*%
X165800000Y-98340000D03*
%TO.P,J9,3,Pin_3*%
%TO.N,/RXD*%
X165800000Y-100880000D03*
%TO.P,J9,4,Pin_4*%
%TO.N,/DTR*%
X165800000Y-103420000D03*
%TO.P,J9,5,Pin_5*%
%TO.N,/RTS*%
X165800000Y-105960000D03*
%TO.P,J9,6,Pin_6*%
%TO.N,GND*%
X165800000Y-108500000D03*
%TD*%
D10*
%TO.P,J4,1,Pin_1*%
%TO.N,+12V*%
X111142857Y-118800000D03*
D11*
%TO.P,J4,2,Pin_2*%
%TO.N,Net-(D4-A)*%
X109142857Y-118800000D03*
%TD*%
D12*
%TO.P,H1,1,1*%
%TO.N,GND*%
X67400000Y-117350000D03*
%TD*%
D10*
%TO.P,J7,1,Pin_1*%
%TO.N,+12V*%
X145385714Y-118800000D03*
D11*
%TO.P,J7,2,Pin_2*%
%TO.N,Net-(D7-A)*%
X143385714Y-118800000D03*
%TD*%
D10*
%TO.P,J1,1,Pin_1*%
%TO.N,+12V*%
X76900000Y-118800000D03*
D11*
%TO.P,J1,2,Pin_2*%
%TO.N,Net-(D1-A)*%
X74900000Y-118800000D03*
%TD*%
D10*
%TO.P,J5,1,Pin_1*%
%TO.N,+12V*%
X122557143Y-118800000D03*
D11*
%TO.P,J5,2,Pin_2*%
%TO.N,Net-(D5-A)*%
X120557143Y-118800000D03*
%TD*%
D20*
%TO.P,J12,1,Pin_1*%
%TO.N,Net-(J12-Pin_1)*%
X113130000Y-86290000D03*
D21*
%TO.P,J12,2,Pin_2*%
%TO.N,GND*%
X116940000Y-86290000D03*
%TD*%
D10*
%TO.P,J8,1,Pin_1*%
%TO.N,+12V*%
X156800000Y-118800000D03*
D11*
%TO.P,J8,2,Pin_2*%
%TO.N,Net-(D8-A)*%
X154800000Y-118800000D03*
%TD*%
D22*
%TO.P,U4,28,GND*%
%TO.N,GND*%
X148760000Y-88200000D03*
%TO.P,U4,29,GND*%
X149860000Y-88200000D03*
%TO.P,U4,30,GND*%
X148210000Y-88750000D03*
%TO.P,U4,31,GND*%
X149310000Y-88750000D03*
%TO.P,U4,32,GND*%
X150410000Y-88750000D03*
%TO.P,U4,33,GND*%
X148760000Y-89300000D03*
%TO.P,U4,34,GND*%
X149860000Y-89300000D03*
%TO.P,U4,35,GND*%
X148210000Y-89850000D03*
%TO.P,U4,36,GND*%
X149310000Y-89850000D03*
%TO.P,U4,37,GND*%
X150410000Y-89850000D03*
%TO.P,U4,38,GND*%
X148760000Y-90400000D03*
%TO.P,U4,39,GND*%
X149860000Y-90400000D03*
%TD*%
D10*
%TO.P,J2,1,Pin_1*%
%TO.N,+12V*%
X88314286Y-118800000D03*
D11*
%TO.P,J2,2,Pin_2*%
%TO.N,Net-(D2-A)*%
X86314286Y-118800000D03*
%TD*%
D10*
%TO.P,J3,1,Pin_1*%
%TO.N,+12V*%
X99728571Y-118800000D03*
D11*
%TO.P,J3,2,Pin_2*%
%TO.N,Net-(D3-A)*%
X97728571Y-118800000D03*
%TD*%
D23*
%TO.N,GND*%
X118500000Y-108000000D03*
X77400000Y-96000000D03*
X96600000Y-97100000D03*
X84100000Y-108000000D03*
X84500000Y-95400000D03*
X144000000Y-95000000D03*
X106100000Y-108000000D03*
X150900000Y-107600000D03*
X130100000Y-93300000D03*
X73500000Y-108000000D03*
X98000000Y-89200000D03*
X130100000Y-108000000D03*
X151500000Y-101000000D03*
X95900000Y-108000000D03*
X141600000Y-108000000D03*
%TO.N,/CHIP_PU*%
X166400000Y-84000000D03*
X151600000Y-84600000D03*
%TO.N,Net-(J12-Pin_1)*%
X143750000Y-98340000D03*
X116550000Y-102440000D03*
%TO.N,+3.3V*%
X86900000Y-96500000D03*
X108310000Y-95490000D03*
X129700000Y-88600000D03*
X111300000Y-88000000D03*
X110260000Y-94180000D03*
X70600000Y-97300000D03*
X124800000Y-88900000D03*
X158800000Y-83600000D03*
X89600000Y-89100000D03*
X151400000Y-83600000D03*
%TO.N,Net-(U4-IO8)*%
X114370000Y-99510000D03*
X137510000Y-99840000D03*
%TO.N,/IO9*%
X167400000Y-90600000D03*
X146100000Y-97400000D03*
%TO.N,/c0*%
X83300000Y-89700000D03*
X153400000Y-86300000D03*
%TO.N,/c1*%
X91100000Y-94100000D03*
X150300000Y-92700000D03*
%TO.N,/c2*%
X92300000Y-85900000D03*
X141000000Y-85900000D03*
%TO.N,/c3*%
X113570000Y-98920000D03*
X131000000Y-96600000D03*
%TO.N,/c4*%
X125900000Y-99600000D03*
X132600000Y-97500000D03*
%TO.N,/btn*%
X148200000Y-96000000D03*
X72400000Y-98400000D03*
%TD*%
D24*
%TO.N,GND*%
X95900000Y-108000000D02*
X106100000Y-108000000D01*
X150900000Y-107600000D02*
X164900000Y-107600000D01*
X93037925Y-97100000D02*
X90349000Y-94411075D01*
X164900000Y-107600000D02*
X165800000Y-108500000D01*
D25*
X152601000Y-91848943D02*
X152601000Y-91351057D01*
X149449943Y-95000000D02*
X152601000Y-91848943D01*
D24*
X73500000Y-108000000D02*
X84100000Y-108000000D01*
D25*
X149449943Y-98949943D02*
X151500000Y-101000000D01*
D24*
X131800000Y-95000000D02*
X144000000Y-95000000D01*
D25*
X151099943Y-89850000D02*
X150410000Y-89850000D01*
D24*
X90349000Y-90902000D02*
X90800000Y-90451000D01*
D25*
X144000000Y-95000000D02*
X149449943Y-95000000D01*
D24*
X141600000Y-108000000D02*
X150500000Y-108000000D01*
X86800000Y-90451000D02*
X82949000Y-90451000D01*
X96749000Y-90451000D02*
X90800000Y-90451000D01*
X82949000Y-90451000D02*
X77400000Y-96000000D01*
X98000000Y-89200000D02*
X96749000Y-90451000D01*
X84100000Y-108000000D02*
X95900000Y-108000000D01*
X130100000Y-108000000D02*
X141600000Y-108000000D01*
X96600000Y-97100000D02*
X93037925Y-97100000D01*
X90800000Y-90451000D02*
X86800000Y-90451000D01*
X150500000Y-108000000D02*
X150900000Y-107600000D01*
D25*
X149449943Y-95000000D02*
X149449943Y-98949943D01*
X152601000Y-91351057D02*
X151099943Y-89850000D01*
D24*
X130100000Y-93300000D02*
X131800000Y-95000000D01*
X118500000Y-108000000D02*
X130100000Y-108000000D01*
X84500000Y-95400000D02*
X84500000Y-92751000D01*
X90349000Y-94411075D02*
X90349000Y-90902000D01*
X84500000Y-92751000D02*
X86800000Y-90451000D01*
X106100000Y-108000000D02*
X118500000Y-108000000D01*
D25*
%TO.N,/CHIP_PU*%
X151600000Y-84600000D02*
X165800000Y-84600000D01*
X165800000Y-84600000D02*
X166400000Y-84000000D01*
%TO.N,Net-(J12-Pin_1)*%
X139650000Y-102440000D02*
X116550000Y-102440000D01*
X143750000Y-98340000D02*
X139650000Y-102440000D01*
%TO.N,+3.3V*%
X129700000Y-88600000D02*
X125100000Y-88600000D01*
X108310000Y-95490000D02*
X108950000Y-95490000D01*
X86100000Y-97300000D02*
X86900000Y-96500000D01*
X151400000Y-83600000D02*
X158800000Y-83600000D01*
X89600000Y-89100000D02*
X90700000Y-88000000D01*
X70600000Y-97300000D02*
X86100000Y-97300000D01*
X125100000Y-88600000D02*
X124800000Y-88900000D01*
X108950000Y-95490000D02*
X110260000Y-94180000D01*
X112200000Y-88900000D02*
X111300000Y-88000000D01*
X124800000Y-88900000D02*
X112200000Y-88900000D01*
X90700000Y-88000000D02*
X111300000Y-88000000D01*
%TO.N,Net-(U4-IO8)*%
X115061000Y-100201000D02*
X137149000Y-100201000D01*
X137149000Y-100201000D02*
X137510000Y-99840000D01*
X114370000Y-99510000D02*
X115061000Y-100201000D01*
%TO.N,/IO9*%
X150301000Y-101601000D02*
X156399000Y-101601000D01*
X156399000Y-101601000D02*
X167400000Y-90600000D01*
X146100000Y-97400000D02*
X150301000Y-101601000D01*
%TO.N,/c0*%
X152514000Y-87186000D02*
X125350000Y-87186000D01*
X153400000Y-86300000D02*
X152514000Y-87186000D01*
X103660000Y-86750000D02*
X103660000Y-87186000D01*
X125350000Y-87186000D02*
X122353000Y-84189000D01*
X85814000Y-87186000D02*
X83300000Y-89700000D01*
X106221000Y-84189000D02*
X103660000Y-86750000D01*
X103660000Y-87186000D02*
X85814000Y-87186000D01*
X122353000Y-84189000D02*
X106221000Y-84189000D01*
%TO.N,/c1*%
X111350057Y-91600000D02*
X146400000Y-91600000D01*
X146400000Y-91600000D02*
X147500000Y-92700000D01*
X147500000Y-92700000D02*
X150300000Y-92700000D01*
X107709000Y-95241057D02*
X111350057Y-91600000D01*
X92241057Y-95241057D02*
X107709000Y-95241057D01*
X91100000Y-94100000D02*
X92241057Y-95241057D01*
%TO.N,/c2*%
X138384000Y-83284000D02*
X94916000Y-83284000D01*
X141000000Y-85900000D02*
X138384000Y-83284000D01*
X94916000Y-83284000D02*
X92300000Y-85900000D01*
%TO.N,/c3*%
X114700000Y-96600000D02*
X113940000Y-97360000D01*
X131000000Y-96600000D02*
X114700000Y-96600000D01*
X113940000Y-98550000D02*
X113940000Y-97360000D01*
X113570000Y-98920000D02*
X113940000Y-98550000D01*
%TO.N,/c4*%
X128000000Y-97500000D02*
X125900000Y-99600000D01*
X132600000Y-97500000D02*
X128000000Y-97500000D01*
%TO.N,/btn*%
X114450057Y-96000000D02*
X148200000Y-96000000D01*
X72400000Y-98400000D02*
X112050057Y-98400000D01*
X112050057Y-98400000D02*
X114450057Y-96000000D01*
%TD*%
M02*
