%TF.GenerationSoftware,KiCad,Pcbnew,9.0.0*%
%TF.CreationDate,2025-05-08T09:04:40-05:00*%
%TF.ProjectId,driver-board,64726976-6572-42d6-926f-6172642e6b69,rev?*%
%TF.SameCoordinates,Original*%
%TF.FileFunction,Soldermask,Bot*%
%TF.FilePolarity,Negative*%
%FSLAX46Y46*%
G04 Gerber Fmt 4.6, Leading zero omitted, Abs format (unit mm)*
G04 Created by KiCad (PCBNEW 9.0.0) date 2025-05-08 09:04:40*
%MOMM*%
%LPD*%
G01*
G04 APERTURE LIST*
G04 Aperture macros list*
%AMRoundRect*
0 Rectangle with rounded corners*
0 $1 Rounding radius*
0 $2 $3 $4 $5 $6 $7 $8 $9 X,Y pos of 4 corners*
0 Add a 4 corners polygon primitive as box body*
4,1,4,$2,$3,$4,$5,$6,$7,$8,$9,$2,$3,0*
0 Add four circle primitives for the rounded corners*
1,1,$1+$1,$2,$3*
1,1,$1+$1,$4,$5*
1,1,$1+$1,$6,$7*
1,1,$1+$1,$8,$9*
0 Add four rect primitives between the rounded corners*
20,1,$1+$1,$2,$3,$4,$5,0*
20,1,$1+$1,$4,$5,$6,$7,0*
20,1,$1+$1,$6,$7,$8,$9,0*
20,1,$1+$1,$8,$9,$2,$3,0*%
G04 Aperture macros list end*
%ADD10C,6.400000*%
%ADD11C,1.900000*%
%ADD12C,0.770000*%
%ADD13R,1.700000X1.700000*%
%ADD14O,1.700000X1.700000*%
%ADD15O,1.200000X1.750000*%
%ADD16RoundRect,0.250000X0.350000X0.625000X-0.350000X0.625000X-0.350000X-0.625000X0.350000X-0.625000X0*%
G04 APERTURE END LIST*
D10*
%TO.C,H2*%
X164100000Y-117350000D03*
%TD*%
%TO.C,H1*%
X67400000Y-117350000D03*
%TD*%
D11*
%TO.C,J11*%
X69100000Y-89800000D03*
X74100000Y-89800000D03*
X69100000Y-86300000D03*
X74100000Y-86300000D03*
%TD*%
D12*
%TO.C,U3*%
X109100000Y-93300000D03*
X109100000Y-94600000D03*
X109100000Y-95900000D03*
X110400000Y-93300000D03*
X110400000Y-94600000D03*
X110400000Y-95900000D03*
%TD*%
%TO.C,U2*%
X109575000Y-83935000D03*
X109575000Y-85235000D03*
X109575000Y-86535000D03*
X110875000Y-83935000D03*
X110875000Y-85235000D03*
X110875000Y-86535000D03*
%TD*%
D13*
%TO.C,J9*%
X165800000Y-95800000D03*
D14*
X165800000Y-98340000D03*
X165800000Y-100880000D03*
X165800000Y-103420000D03*
X165800000Y-105960000D03*
X165800000Y-108500000D03*
%TD*%
D15*
%TO.C,J3*%
X97728571Y-118800000D03*
D16*
X99728571Y-118800000D03*
%TD*%
D15*
%TO.C,J7*%
X143385714Y-118800000D03*
D16*
X145385714Y-118800000D03*
%TD*%
D15*
%TO.C,J8*%
X154800000Y-118800000D03*
D16*
X156800000Y-118800000D03*
%TD*%
D15*
%TO.C,J2*%
X86314286Y-118800000D03*
D16*
X88314286Y-118800000D03*
%TD*%
D15*
%TO.C,J1*%
X74900000Y-118800000D03*
D16*
X76900000Y-118800000D03*
%TD*%
D15*
%TO.C,J5*%
X120557143Y-118800000D03*
D16*
X122557143Y-118800000D03*
%TD*%
D15*
%TO.C,J4*%
X109142857Y-118800000D03*
D16*
X111142857Y-118800000D03*
%TD*%
D15*
%TO.C,J6*%
X131971429Y-118800000D03*
D16*
X133971429Y-118800000D03*
%TD*%
M02*
