%TF.GenerationSoftware,KiCad,Pcbnew,9.0.0*%
%TF.CreationDate,2025-05-08T09:04:40-05:00*%
%TF.ProjectId,driver-board,64726976-6572-42d6-926f-6172642e6b69,rev?*%
%TF.SameCoordinates,Original*%
%TF.FileFunction,Copper,L1,Top*%
%TF.FilePolarity,Positive*%
%FSLAX46Y46*%
G04 Gerber Fmt 4.6, Leading zero omitted, Abs format (unit mm)*
G04 Created by KiCad (PCBNEW 9.0.0) date 2025-05-08 09:04:40*
%MOMM*%
%LPD*%
G01*
G04 APERTURE LIST*
G04 Aperture macros list*
%AMRoundRect*
0 Rectangle with rounded corners*
0 $1 Rounding radius*
0 $2 $3 $4 $5 $6 $7 $8 $9 X,Y pos of 4 corners*
0 Add a 4 corners polygon primitive as box body*
4,1,4,$2,$3,$4,$5,$6,$7,$8,$9,$2,$3,0*
0 Add four circle primitives for the rounded corners*
1,1,$1+$1,$2,$3*
1,1,$1+$1,$4,$5*
1,1,$1+$1,$6,$7*
1,1,$1+$1,$8,$9*
0 Add four rect primitives between the rounded corners*
20,1,$1+$1,$2,$3,$4,$5,0*
20,1,$1+$1,$4,$5,$6,$7,0*
20,1,$1+$1,$6,$7,$8,$9,0*
20,1,$1+$1,$8,$9,$2,$3,0*%
G04 Aperture macros list end*
%TA.AperFunction,SMDPad,CuDef*%
%ADD10R,1.500000X0.900000*%
%TD*%
%TA.AperFunction,SMDPad,CuDef*%
%ADD11R,0.700000X0.700000*%
%TD*%
%TA.AperFunction,ComponentPad*%
%ADD12C,0.400000*%
%TD*%
%TA.AperFunction,ComponentPad*%
%ADD13C,6.400000*%
%TD*%
%TA.AperFunction,SMDPad,CuDef*%
%ADD14R,1.400048X1.549908*%
%TD*%
%TA.AperFunction,ComponentPad*%
%ADD15C,1.900000*%
%TD*%
%TA.AperFunction,SMDPad,CuDef*%
%ADD16R,1.570000X2.820000*%
%TD*%
%TA.AperFunction,SMDPad,CuDef*%
%ADD17R,2.200000X0.500000*%
%TD*%
%TA.AperFunction,ComponentPad*%
%ADD18C,0.630000*%
%TD*%
%TA.AperFunction,SMDPad,CuDef*%
%ADD19R,2.950000X4.900000*%
%TD*%
%TA.AperFunction,SMDPad,CuDef*%
%ADD20RoundRect,0.250000X0.262500X0.450000X-0.262500X0.450000X-0.262500X-0.450000X0.262500X-0.450000X0*%
%TD*%
%TA.AperFunction,SMDPad,CuDef*%
%ADD21RoundRect,0.250000X-0.262500X-0.450000X0.262500X-0.450000X0.262500X0.450000X-0.262500X0.450000X0*%
%TD*%
%TA.AperFunction,SMDPad,CuDef*%
%ADD22RoundRect,0.250000X0.450000X-0.262500X0.450000X0.262500X-0.450000X0.262500X-0.450000X-0.262500X0*%
%TD*%
%TA.AperFunction,SMDPad,CuDef*%
%ADD23RoundRect,0.150000X-0.587500X-0.150000X0.587500X-0.150000X0.587500X0.150000X-0.587500X0.150000X0*%
%TD*%
%TA.AperFunction,SMDPad,CuDef*%
%ADD24R,3.500000X1.300000*%
%TD*%
%TA.AperFunction,ComponentPad*%
%ADD25R,1.700000X1.700000*%
%TD*%
%TA.AperFunction,ComponentPad*%
%ADD26O,1.700000X1.700000*%
%TD*%
%TA.AperFunction,SMDPad,CuDef*%
%ADD27RoundRect,0.250000X-0.250000X-0.475000X0.250000X-0.475000X0.250000X0.475000X-0.250000X0.475000X0*%
%TD*%
%TA.AperFunction,SMDPad,CuDef*%
%ADD28RoundRect,0.250000X0.475000X-0.250000X0.475000X0.250000X-0.475000X0.250000X-0.475000X-0.250000X0*%
%TD*%
%TA.AperFunction,SMDPad,CuDef*%
%ADD29RoundRect,0.225000X0.225000X0.250000X-0.225000X0.250000X-0.225000X-0.250000X0.225000X-0.250000X0*%
%TD*%
%TA.AperFunction,SMDPad,CuDef*%
%ADD30RoundRect,0.250000X0.650000X-0.325000X0.650000X0.325000X-0.650000X0.325000X-0.650000X-0.325000X0*%
%TD*%
%TA.AperFunction,SMDPad,CuDef*%
%ADD31RoundRect,0.250000X-0.650000X0.325000X-0.650000X-0.325000X0.650000X-0.325000X0.650000X0.325000X0*%
%TD*%
%TA.AperFunction,SMDPad,CuDef*%
%ADD32RoundRect,0.250000X0.250000X0.475000X-0.250000X0.475000X-0.250000X-0.475000X0.250000X-0.475000X0*%
%TD*%
%TA.AperFunction,SMDPad,CuDef*%
%ADD33RoundRect,0.375000X-0.375000X0.625000X-0.375000X-0.625000X0.375000X-0.625000X0.375000X0.625000X0*%
%TD*%
%TA.AperFunction,SMDPad,CuDef*%
%ADD34RoundRect,0.500000X-1.400000X0.500000X-1.400000X-0.500000X1.400000X-0.500000X1.400000X0.500000X0*%
%TD*%
%TA.AperFunction,SMDPad,CuDef*%
%ADD35RoundRect,0.250000X-0.275000X-0.500000X0.275000X-0.500000X0.275000X0.500000X-0.275000X0.500000X0*%
%TD*%
%TA.AperFunction,SMDPad,CuDef*%
%ADD36RoundRect,0.250000X-0.950000X-0.500000X0.950000X-0.500000X0.950000X0.500000X-0.950000X0.500000X0*%
%TD*%
%TA.AperFunction,ComponentPad*%
%ADD37O,1.200000X1.750000*%
%TD*%
%TA.AperFunction,ComponentPad*%
%ADD38RoundRect,0.250000X0.350000X0.625000X-0.350000X0.625000X-0.350000X-0.625000X0.350000X-0.625000X0*%
%TD*%
%TA.AperFunction,ViaPad*%
%ADD39C,0.600000*%
%TD*%
%TA.AperFunction,Conductor*%
%ADD40C,0.500000*%
%TD*%
%TA.AperFunction,Conductor*%
%ADD41C,0.200000*%
%TD*%
G04 APERTURE END LIST*
D10*
%TO.P,U4,1,3V3*%
%TO.N,+3.3V*%
X139600000Y-83100000D03*
%TO.P,U4,2,EN*%
%TO.N,/CHIP_PU*%
X139600000Y-84600000D03*
%TO.P,U4,3,IO4*%
%TO.N,/c2*%
X139600000Y-86100000D03*
%TO.P,U4,4,IO5*%
%TO.N,/c3*%
X139600000Y-87600000D03*
%TO.P,U4,5,IO6*%
%TO.N,/c4*%
X139600000Y-89100000D03*
%TO.P,U4,6,IO7*%
%TO.N,/c5*%
X139600000Y-90600000D03*
%TO.P,U4,7,IO8*%
%TO.N,/c6*%
X139600000Y-92100000D03*
%TO.P,U4,8,IO9*%
%TO.N,/IO9*%
X139600000Y-93600000D03*
%TO.P,U4,9,GND*%
%TO.N,GND*%
X139600000Y-95100000D03*
%TO.P,U4,10,IO10*%
%TO.N,/c7*%
X157100000Y-95100000D03*
%TO.P,U4,11,RXD*%
%TO.N,/RXD*%
X157100000Y-93600000D03*
%TO.P,U4,12,TXD*%
%TO.N,/TXD*%
X157100000Y-92100000D03*
%TO.P,U4,13,IO18*%
%TO.N,unconnected-(U4-IO18-Pad13)*%
X157100000Y-90600000D03*
%TO.P,U4,14,IO19*%
%TO.N,unconnected-(U4-IO19-Pad14)*%
X157100000Y-89100000D03*
%TO.P,U4,15,IO3*%
%TO.N,/c1*%
X157100000Y-87600000D03*
%TO.P,U4,16,IO2*%
%TO.N,/c0*%
X157100000Y-86100000D03*
%TO.P,U4,17,IO1*%
%TO.N,/btn*%
X157100000Y-84600000D03*
%TO.P,U4,18,IO0*%
%TO.N,unconnected-(U4-IO0-Pad18)*%
X157100000Y-83100000D03*
D11*
%TO.P,U4,19,GND*%
%TO.N,GND*%
X148210000Y-88200000D03*
%TO.P,U4,20,GND*%
X149310000Y-88200000D03*
%TO.P,U4,21,GND*%
X150410000Y-88200000D03*
%TO.P,U4,22,GND*%
X148210000Y-89300000D03*
%TO.P,U4,23,GND*%
X149310000Y-89300000D03*
%TO.P,U4,24,GND*%
X150410000Y-89300000D03*
%TO.P,U4,25,GND*%
X148210000Y-90400000D03*
%TO.P,U4,26,GND*%
X149310000Y-90400000D03*
%TO.P,U4,27,GND*%
X150410000Y-90400000D03*
D12*
%TO.P,U4,28,GND*%
X148760000Y-88200000D03*
%TO.P,U4,29,GND*%
X149860000Y-88200000D03*
%TO.P,U4,30,GND*%
X148210000Y-88750000D03*
%TO.P,U4,31,GND*%
X149310000Y-88750000D03*
%TO.P,U4,32,GND*%
X150410000Y-88750000D03*
%TO.P,U4,33,GND*%
X148760000Y-89300000D03*
%TO.P,U4,34,GND*%
X149860000Y-89300000D03*
%TO.P,U4,35,GND*%
X148210000Y-89850000D03*
%TO.P,U4,36,GND*%
X149310000Y-89850000D03*
%TO.P,U4,37,GND*%
X150410000Y-89850000D03*
%TO.P,U4,38,GND*%
X148760000Y-90400000D03*
%TO.P,U4,39,GND*%
X149860000Y-90400000D03*
%TD*%
D13*
%TO.P,H2,1,1*%
%TO.N,GND*%
X164100000Y-117350000D03*
%TD*%
%TO.P,H1,1,1*%
%TO.N,GND*%
X67400000Y-117350000D03*
%TD*%
D14*
%TO.P,SW1,1,1*%
%TO.N,+3.3V*%
X64799998Y-107649996D03*
%TO.P,SW1,2,2*%
%TO.N,unconnected-(SW1-Pad2)*%
X69300000Y-107649996D03*
%TO.P,SW1,3,3*%
%TO.N,unconnected-(SW1-Pad3)*%
X64799998Y-99700000D03*
%TO.P,SW1,4,4*%
%TO.N,/btn*%
X69300000Y-99700000D03*
%TD*%
D15*
%TO.P,J11,1,Pin_1*%
%TO.N,Net-(J11-Pin_1)*%
X69100000Y-89800000D03*
%TO.P,J11,2,Pin_2*%
X74100000Y-89800000D03*
%TO.P,J11,3,Pin_3*%
%TO.N,GND*%
X69100000Y-86300000D03*
%TO.P,J11,4,Pin_4*%
X74100000Y-86300000D03*
%TD*%
D16*
%TO.P,F1,1_1*%
%TO.N,Net-(J11-Pin_1)*%
X80670000Y-85040000D03*
%TO.P,F1,1_2*%
%TO.N,N/C*%
X80670000Y-91360000D03*
%TO.P,F1,2_1*%
%TO.N,/power/V_FUSED*%
X94130000Y-85040000D03*
%TO.P,F1,2_2*%
%TO.N,N/C*%
X94130000Y-91360000D03*
%TD*%
D17*
%TO.P,U3,1,PGND*%
%TO.N,GND*%
X106875000Y-92695000D03*
%TO.P,U3,2,VIN*%
%TO.N,/power/V_FUSED*%
X106875000Y-93965000D03*
%TO.P,U3,3,EN*%
X106875000Y-95235000D03*
%TO.P,U3,4,PG*%
%TO.N,unconnected-(U3-PG-Pad4)*%
X106875000Y-96505000D03*
%TO.P,U3,5,FB*%
%TO.N,Net-(U3-FB)*%
X112625000Y-96505000D03*
%TO.P,U3,6,VCC*%
%TO.N,Net-(U3-VCC)*%
X112625000Y-95235000D03*
%TO.P,U3,7,BOOT*%
%TO.N,Net-(U3-BOOT)*%
X112625000Y-93965000D03*
%TO.P,U3,8,SW*%
%TO.N,Net-(U3-SW)*%
X112625000Y-92695000D03*
D18*
%TO.P,U3,9,PAD*%
%TO.N,GND*%
X109100000Y-93300000D03*
X109100000Y-94600000D03*
X109100000Y-95900000D03*
D19*
X109750000Y-94600000D03*
D18*
X110400000Y-93300000D03*
X110400000Y-94600000D03*
X110400000Y-95900000D03*
%TD*%
D17*
%TO.P,U2,1,PGND*%
%TO.N,GND*%
X107350000Y-83330000D03*
%TO.P,U2,2,VIN*%
%TO.N,/power/V_FUSED*%
X107350000Y-84600000D03*
%TO.P,U2,3,EN*%
X107350000Y-85870000D03*
%TO.P,U2,4,PG*%
%TO.N,unconnected-(U2-PG-Pad4)*%
X107350000Y-87140000D03*
%TO.P,U2,5,FB*%
%TO.N,Net-(U2-FB)*%
X113100000Y-87140000D03*
%TO.P,U2,6,VCC*%
%TO.N,Net-(U2-VCC)*%
X113100000Y-85870000D03*
%TO.P,U2,7,BOOT*%
%TO.N,Net-(U2-BOOT)*%
X113100000Y-84600000D03*
%TO.P,U2,8,SW*%
%TO.N,Net-(U2-SW)*%
X113100000Y-83330000D03*
D18*
%TO.P,U2,9,PAD*%
%TO.N,GND*%
X109575000Y-83935000D03*
X109575000Y-85235000D03*
X109575000Y-86535000D03*
D19*
X110225000Y-85235000D03*
D18*
X110875000Y-83935000D03*
X110875000Y-85235000D03*
X110875000Y-86535000D03*
%TD*%
D20*
%TO.P,R28,1*%
%TO.N,GND*%
X116712500Y-101200000D03*
%TO.P,R28,2*%
%TO.N,Net-(U3-FB)*%
X114887500Y-101200000D03*
%TD*%
D21*
%TO.P,R27,1*%
%TO.N,Net-(U3-FB)*%
X114887500Y-98250000D03*
%TO.P,R27,2*%
%TO.N,+12V*%
X116712500Y-98250000D03*
%TD*%
%TO.P,R26,1*%
%TO.N,GND*%
X111487500Y-89300000D03*
%TO.P,R26,2*%
%TO.N,Net-(U2-FB)*%
X113312500Y-89300000D03*
%TD*%
%TO.P,R25,1*%
%TO.N,Net-(U2-FB)*%
X115300000Y-89300000D03*
%TO.P,R25,2*%
%TO.N,+3.3V*%
X117125000Y-89300000D03*
%TD*%
%TO.P,R24,1*%
%TO.N,/RTS*%
X160687500Y-88600000D03*
%TO.P,R24,2*%
%TO.N,Net-(Q10-B)*%
X162512500Y-88600000D03*
%TD*%
D22*
%TO.P,R23,1*%
%TO.N,/DTR*%
X161100000Y-85800000D03*
%TO.P,R23,2*%
%TO.N,Net-(Q9-B)*%
X161100000Y-83975000D03*
%TD*%
D21*
%TO.P,R17,1*%
%TO.N,+3.3V*%
X131487500Y-88500000D03*
%TO.P,R17,2*%
%TO.N,/CHIP_PU*%
X133312500Y-88500000D03*
%TD*%
D23*
%TO.P,Q10,1,B*%
%TO.N,Net-(Q10-B)*%
X164625000Y-88650000D03*
%TO.P,Q10,2,E*%
%TO.N,/DTR*%
X164625000Y-90550000D03*
%TO.P,Q10,3,C*%
%TO.N,/IO9*%
X166500000Y-89600000D03*
%TD*%
%TO.P,Q9,1,B*%
%TO.N,Net-(Q9-B)*%
X164625000Y-84025000D03*
%TO.P,Q9,2,E*%
%TO.N,/RTS*%
X164625000Y-85925000D03*
%TO.P,Q9,3,C*%
%TO.N,/CHIP_PU*%
X166500000Y-84975000D03*
%TD*%
D24*
%TO.P,L2,1,1*%
%TO.N,Net-(U3-SW)*%
X120800000Y-93600000D03*
%TO.P,L2,2,2*%
%TO.N,+12V*%
X120800000Y-95800000D03*
%TD*%
%TO.P,L1,1,1*%
%TO.N,Net-(U2-SW)*%
X120800000Y-84100000D03*
%TO.P,L1,2,2*%
%TO.N,+3.3V*%
X120800000Y-86300000D03*
%TD*%
D25*
%TO.P,J9,1,Pin_1*%
%TO.N,+3.3V*%
X165800000Y-95800000D03*
D26*
%TO.P,J9,2,Pin_2*%
%TO.N,/TXD*%
X165800000Y-98340000D03*
%TO.P,J9,3,Pin_3*%
%TO.N,/RXD*%
X165800000Y-100880000D03*
%TO.P,J9,4,Pin_4*%
%TO.N,/DTR*%
X165800000Y-103420000D03*
%TO.P,J9,5,Pin_5*%
%TO.N,/RTS*%
X165800000Y-105960000D03*
%TO.P,J9,6,Pin_6*%
%TO.N,GND*%
X165800000Y-108500000D03*
%TD*%
D27*
%TO.P,C25,1*%
%TO.N,+12V*%
X126200000Y-97800000D03*
%TO.P,C25,2*%
%TO.N,GND*%
X128100000Y-97800000D03*
%TD*%
%TO.P,C24,1*%
%TO.N,+12V*%
X126200000Y-94790000D03*
%TO.P,C24,2*%
%TO.N,GND*%
X128100000Y-94790000D03*
%TD*%
%TO.P,C23,1*%
%TO.N,+12V*%
X126200000Y-91780000D03*
%TO.P,C23,2*%
%TO.N,GND*%
X128100000Y-91780000D03*
%TD*%
D28*
%TO.P,C22,1*%
%TO.N,Net-(U3-BOOT)*%
X115800000Y-93850000D03*
%TO.P,C22,2*%
%TO.N,Net-(U3-SW)*%
X115800000Y-91950000D03*
%TD*%
D27*
%TO.P,C21,1*%
%TO.N,Net-(U3-VCC)*%
X118750000Y-98600000D03*
%TO.P,C21,2*%
%TO.N,GND*%
X120650000Y-98600000D03*
%TD*%
D29*
%TO.P,C20,1*%
%TO.N,+3.3V*%
X133200000Y-83300000D03*
%TO.P,C20,2*%
%TO.N,GND*%
X131650000Y-83300000D03*
%TD*%
%TO.P,C19,1*%
%TO.N,+3.3V*%
X133200000Y-85810000D03*
%TO.P,C19,2*%
%TO.N,GND*%
X131650000Y-85810000D03*
%TD*%
D30*
%TO.P,C18,1*%
%TO.N,/power/V_FUSED*%
X102400000Y-93900000D03*
%TO.P,C18,2*%
%TO.N,GND*%
X102400000Y-90950000D03*
%TD*%
%TO.P,C17,1*%
%TO.N,/power/V_FUSED*%
X99400000Y-93975000D03*
%TO.P,C17,2*%
%TO.N,GND*%
X99400000Y-91025000D03*
%TD*%
D27*
%TO.P,C16,1*%
%TO.N,+3.3V*%
X126100000Y-89300000D03*
%TO.P,C16,2*%
%TO.N,GND*%
X128000000Y-89300000D03*
%TD*%
%TO.P,C15,1*%
%TO.N,+3.3V*%
X126100000Y-86290000D03*
%TO.P,C15,2*%
%TO.N,GND*%
X128000000Y-86290000D03*
%TD*%
%TO.P,C14,1*%
%TO.N,+3.3V*%
X126100000Y-83280000D03*
%TO.P,C14,2*%
%TO.N,GND*%
X128000000Y-83280000D03*
%TD*%
%TO.P,C13,1*%
%TO.N,Net-(U2-VCC)*%
X118950000Y-89300000D03*
%TO.P,C13,2*%
%TO.N,GND*%
X120850000Y-89300000D03*
%TD*%
D28*
%TO.P,C12,1*%
%TO.N,Net-(U2-BOOT)*%
X116200000Y-85050000D03*
%TO.P,C12,2*%
%TO.N,Net-(U2-SW)*%
X116200000Y-83150000D03*
%TD*%
D31*
%TO.P,C11,1*%
%TO.N,/power/V_FUSED*%
X99500000Y-83150000D03*
%TO.P,C11,2*%
%TO.N,GND*%
X99500000Y-86100000D03*
%TD*%
%TO.P,C10,1*%
%TO.N,/power/V_FUSED*%
X102850000Y-83150000D03*
%TO.P,C10,2*%
%TO.N,GND*%
X102850000Y-86100000D03*
%TD*%
D32*
%TO.P,C3,1*%
%TO.N,/CHIP_PU*%
X133350000Y-91100000D03*
%TO.P,C3,2*%
%TO.N,GND*%
X131450000Y-91100000D03*
%TD*%
D33*
%TO.P,Q3,3,S*%
%TO.N,GND*%
X96328571Y-104700000D03*
D34*
%TO.P,Q3,2,D*%
%TO.N,Net-(D3-A)*%
X98628571Y-111000000D03*
D33*
X98628571Y-104700000D03*
%TO.P,Q3,1,G*%
%TO.N,Net-(Q3-G)*%
X100928571Y-104700000D03*
%TD*%
D35*
%TO.P,D3,2,A*%
%TO.N,Net-(D3-A)*%
X97453571Y-113900000D03*
D36*
%TO.P,D3,1,K*%
%TO.N,+12V*%
X99828571Y-113900000D03*
%TD*%
D37*
%TO.P,J3,2,Pin_2*%
%TO.N,Net-(D3-A)*%
X97728571Y-118800000D03*
D38*
%TO.P,J3,1,Pin_1*%
%TO.N,+12V*%
X99728571Y-118800000D03*
%TD*%
D22*
%TO.P,R5,2*%
%TO.N,Net-(Q3-G)*%
X100928571Y-100287500D03*
%TO.P,R5,1*%
%TO.N,/c2*%
X100928571Y-102112500D03*
%TD*%
D21*
%TO.P,R6,2*%
%TO.N,Net-(Q3-G)*%
X98141071Y-101300000D03*
%TO.P,R6,1*%
%TO.N,GND*%
X96316071Y-101300000D03*
%TD*%
D37*
%TO.P,J7,2,Pin_2*%
%TO.N,Net-(D7-A)*%
X143385714Y-118800000D03*
D38*
%TO.P,J7,1,Pin_1*%
%TO.N,+12V*%
X145385714Y-118800000D03*
%TD*%
D35*
%TO.P,D7,2,A*%
%TO.N,Net-(D7-A)*%
X143110714Y-113900000D03*
D36*
%TO.P,D7,1,K*%
%TO.N,+12V*%
X145485714Y-113900000D03*
%TD*%
D22*
%TO.P,R13,2*%
%TO.N,Net-(Q7-G)*%
X146585714Y-100287500D03*
%TO.P,R13,1*%
%TO.N,/c6*%
X146585714Y-102112500D03*
%TD*%
D33*
%TO.P,Q7,3,S*%
%TO.N,GND*%
X141985714Y-104700000D03*
D34*
%TO.P,Q7,2,D*%
%TO.N,Net-(D7-A)*%
X144285714Y-111000000D03*
D33*
X144285714Y-104700000D03*
%TO.P,Q7,1,G*%
%TO.N,Net-(Q7-G)*%
X146585714Y-104700000D03*
%TD*%
D21*
%TO.P,R14,2*%
%TO.N,Net-(Q7-G)*%
X143798214Y-101300000D03*
%TO.P,R14,1*%
%TO.N,GND*%
X141973214Y-101300000D03*
%TD*%
D35*
%TO.P,D8,2,A*%
%TO.N,Net-(D8-A)*%
X154525000Y-113900000D03*
D36*
%TO.P,D8,1,K*%
%TO.N,+12V*%
X156900000Y-113900000D03*
%TD*%
D37*
%TO.P,J8,2,Pin_2*%
%TO.N,Net-(D8-A)*%
X154800000Y-118800000D03*
D38*
%TO.P,J8,1,Pin_1*%
%TO.N,+12V*%
X156800000Y-118800000D03*
%TD*%
D22*
%TO.P,R15,2*%
%TO.N,Net-(Q8-G)*%
X158000000Y-100287500D03*
%TO.P,R15,1*%
%TO.N,/c7*%
X158000000Y-102112500D03*
%TD*%
D33*
%TO.P,Q8,3,S*%
%TO.N,GND*%
X153400000Y-104700000D03*
D34*
%TO.P,Q8,2,D*%
%TO.N,Net-(D8-A)*%
X155700000Y-111000000D03*
D33*
X155700000Y-104700000D03*
%TO.P,Q8,1,G*%
%TO.N,Net-(Q8-G)*%
X158000000Y-104700000D03*
%TD*%
D21*
%TO.P,R16,2*%
%TO.N,Net-(Q8-G)*%
X155212500Y-101300000D03*
%TO.P,R16,1*%
%TO.N,GND*%
X153387500Y-101300000D03*
%TD*%
D35*
%TO.P,D2,2,A*%
%TO.N,Net-(D2-A)*%
X86039286Y-113900000D03*
D36*
%TO.P,D2,1,K*%
%TO.N,+12V*%
X88414286Y-113900000D03*
%TD*%
D37*
%TO.P,J2,2,Pin_2*%
%TO.N,Net-(D2-A)*%
X86314286Y-118800000D03*
D38*
%TO.P,J2,1,Pin_1*%
%TO.N,+12V*%
X88314286Y-118800000D03*
%TD*%
D22*
%TO.P,R3,2*%
%TO.N,Net-(Q2-G)*%
X89514286Y-100287500D03*
%TO.P,R3,1*%
%TO.N,/c1*%
X89514286Y-102112500D03*
%TD*%
D33*
%TO.P,Q2,3,S*%
%TO.N,GND*%
X84914286Y-104700000D03*
D34*
%TO.P,Q2,2,D*%
%TO.N,Net-(D2-A)*%
X87214286Y-111000000D03*
D33*
X87214286Y-104700000D03*
%TO.P,Q2,1,G*%
%TO.N,Net-(Q2-G)*%
X89514286Y-104700000D03*
%TD*%
D21*
%TO.P,R4,2*%
%TO.N,Net-(Q2-G)*%
X86726786Y-101300000D03*
%TO.P,R4,1*%
%TO.N,GND*%
X84901786Y-101300000D03*
%TD*%
D37*
%TO.P,J1,2,Pin_2*%
%TO.N,Net-(D1-A)*%
X74900000Y-118800000D03*
D38*
%TO.P,J1,1,Pin_1*%
%TO.N,+12V*%
X76900000Y-118800000D03*
%TD*%
D37*
%TO.P,J5,2,Pin_2*%
%TO.N,Net-(D5-A)*%
X120557143Y-118800000D03*
D38*
%TO.P,J5,1,Pin_1*%
%TO.N,+12V*%
X122557143Y-118800000D03*
%TD*%
D33*
%TO.P,Q5,3,S*%
%TO.N,GND*%
X119157143Y-104700000D03*
D34*
%TO.P,Q5,2,D*%
%TO.N,Net-(D5-A)*%
X121457143Y-111000000D03*
D33*
X121457143Y-104700000D03*
%TO.P,Q5,1,G*%
%TO.N,Net-(Q5-G)*%
X123757143Y-104700000D03*
%TD*%
D35*
%TO.P,D5,2,A*%
%TO.N,Net-(D5-A)*%
X120282143Y-113900000D03*
D36*
%TO.P,D5,1,K*%
%TO.N,+12V*%
X122657143Y-113900000D03*
%TD*%
D22*
%TO.P,R9,2*%
%TO.N,Net-(Q5-G)*%
X123757143Y-100287500D03*
%TO.P,R9,1*%
%TO.N,/c4*%
X123757143Y-102112500D03*
%TD*%
D21*
%TO.P,R10,2*%
%TO.N,Net-(Q5-G)*%
X120969643Y-101300000D03*
%TO.P,R10,1*%
%TO.N,GND*%
X119144643Y-101300000D03*
%TD*%
D35*
%TO.P,D4,2,A*%
%TO.N,Net-(D4-A)*%
X108867857Y-113900000D03*
D36*
%TO.P,D4,1,K*%
%TO.N,+12V*%
X111242857Y-113900000D03*
%TD*%
D37*
%TO.P,J4,2,Pin_2*%
%TO.N,Net-(D4-A)*%
X109142857Y-118800000D03*
D38*
%TO.P,J4,1,Pin_1*%
%TO.N,+12V*%
X111142857Y-118800000D03*
%TD*%
D22*
%TO.P,R7,2*%
%TO.N,Net-(Q4-G)*%
X112342857Y-100287500D03*
%TO.P,R7,1*%
%TO.N,/c3*%
X112342857Y-102112500D03*
%TD*%
D33*
%TO.P,Q4,3,S*%
%TO.N,GND*%
X107742857Y-104700000D03*
D34*
%TO.P,Q4,2,D*%
%TO.N,Net-(D4-A)*%
X110042857Y-111000000D03*
D33*
X110042857Y-104700000D03*
%TO.P,Q4,1,G*%
%TO.N,Net-(Q4-G)*%
X112342857Y-104700000D03*
%TD*%
D21*
%TO.P,R8,2*%
%TO.N,Net-(Q4-G)*%
X109555357Y-101300000D03*
%TO.P,R8,1*%
%TO.N,GND*%
X107730357Y-101300000D03*
%TD*%
D35*
%TO.P,D1,2,A*%
%TO.N,Net-(D1-A)*%
X74625000Y-113900000D03*
D36*
%TO.P,D1,1,K*%
%TO.N,+12V*%
X77000000Y-113900000D03*
%TD*%
D21*
%TO.P,R12,2*%
%TO.N,Net-(Q6-G)*%
X132383929Y-101300000D03*
%TO.P,R12,1*%
%TO.N,GND*%
X130558929Y-101300000D03*
%TD*%
D35*
%TO.P,D6,2,A*%
%TO.N,Net-(D6-A)*%
X131696429Y-113900000D03*
D36*
%TO.P,D6,1,K*%
%TO.N,+12V*%
X134071429Y-113900000D03*
%TD*%
D37*
%TO.P,J6,2,Pin_2*%
%TO.N,Net-(D6-A)*%
X131971429Y-118800000D03*
D38*
%TO.P,J6,1,Pin_1*%
%TO.N,+12V*%
X133971429Y-118800000D03*
%TD*%
D22*
%TO.P,R11,2*%
%TO.N,Net-(Q6-G)*%
X135171429Y-100287500D03*
%TO.P,R11,1*%
%TO.N,/c5*%
X135171429Y-102112500D03*
%TD*%
D33*
%TO.P,Q6,3,S*%
%TO.N,GND*%
X130571429Y-104700000D03*
D34*
%TO.P,Q6,2,D*%
%TO.N,Net-(D6-A)*%
X132871429Y-111000000D03*
D33*
X132871429Y-104700000D03*
%TO.P,Q6,1,G*%
%TO.N,Net-(Q6-G)*%
X135171429Y-104700000D03*
%TD*%
%TO.P,Q1,3,S*%
%TO.N,GND*%
X73500000Y-104700000D03*
D34*
%TO.P,Q1,2,D*%
%TO.N,Net-(D1-A)*%
X75800000Y-111000000D03*
D33*
X75800000Y-104700000D03*
%TO.P,Q1,1,G*%
%TO.N,Net-(Q1-G)*%
X78100000Y-104700000D03*
%TD*%
D22*
%TO.P,R1,2*%
%TO.N,Net-(Q1-G)*%
X78100000Y-100287500D03*
%TO.P,R1,1*%
%TO.N,/c0*%
X78100000Y-102112500D03*
%TD*%
D21*
%TO.P,R2,2*%
%TO.N,Net-(Q1-G)*%
X75312500Y-101300000D03*
%TO.P,R2,1*%
%TO.N,GND*%
X73487500Y-101300000D03*
%TD*%
D39*
%TO.N,+3.3V*%
X116500000Y-88000000D03*
X89600000Y-89100000D03*
X86900000Y-96500000D03*
X70600000Y-97300000D03*
%TO.N,/btn*%
X148200000Y-96000000D03*
X72400000Y-98400000D03*
%TO.N,/c1*%
X150300000Y-92700000D03*
%TO.N,GND*%
X129400000Y-90100000D03*
X123800000Y-89000000D03*
X84100000Y-108000000D03*
X95900000Y-108000000D03*
X106100000Y-108000000D03*
X118500000Y-108000000D03*
X130100000Y-108000000D03*
X141600000Y-108000000D03*
X73500000Y-108000000D03*
X96600000Y-97100000D03*
X84500000Y-95400000D03*
X77400000Y-96000000D03*
X98000000Y-89200000D03*
%TO.N,+3.3V*%
X129700000Y-88600000D03*
X124800000Y-88900000D03*
%TO.N,GND*%
X130100000Y-93300000D03*
%TO.N,/IO9*%
X146100000Y-97400000D03*
X167400000Y-90600000D03*
%TO.N,GND*%
X150900000Y-107600000D03*
X151500000Y-101000000D03*
X144000000Y-95000000D03*
%TO.N,+3.3V*%
X158800000Y-83600000D03*
X151400000Y-83600000D03*
%TO.N,/CHIP_PU*%
X166400000Y-84000000D03*
X151600000Y-84600000D03*
%TO.N,/c4*%
X125900000Y-99600000D03*
X132600000Y-97500000D03*
%TO.N,/c3*%
X113100000Y-98200000D03*
X131000000Y-96600000D03*
%TO.N,/c2*%
X92300000Y-85900000D03*
X141000000Y-85900000D03*
%TO.N,/c1*%
X91100000Y-94100000D03*
%TO.N,/c0*%
X83300000Y-89700000D03*
X153400000Y-86300000D03*
%TD*%
D40*
%TO.N,GND*%
X164100000Y-110200000D02*
X164100000Y-117350000D01*
X165800000Y-108500000D02*
X164100000Y-110200000D01*
X67400000Y-114100000D02*
X67400000Y-117350000D01*
X73500000Y-108000000D02*
X67400000Y-114100000D01*
D41*
%TO.N,+3.3V*%
X116500000Y-88675000D02*
X117125000Y-89300000D01*
X116500000Y-88000000D02*
X116500000Y-88675000D01*
X89600000Y-93800000D02*
X89600000Y-89100000D01*
X86900000Y-96500000D02*
X89600000Y-93800000D01*
X69623022Y-97300000D02*
X70600000Y-97300000D01*
X64799998Y-102123024D02*
X69623022Y-97300000D01*
X64799998Y-107649996D02*
X64799998Y-102123024D01*
%TO.N,/btn*%
X156499000Y-85201000D02*
X157100000Y-84600000D01*
X149907000Y-85201000D02*
X156499000Y-85201000D01*
X147000000Y-88108000D02*
X149907000Y-85201000D01*
X147000000Y-92700000D02*
X147000000Y-88108000D01*
X148200000Y-93900000D02*
X147000000Y-92700000D01*
X71100000Y-99700000D02*
X72400000Y-98400000D01*
X148200000Y-96000000D02*
X148200000Y-93900000D01*
X69300000Y-99700000D02*
X71100000Y-99700000D01*
%TO.N,/c1*%
X154400000Y-89300000D02*
X156000000Y-87700000D01*
X154400000Y-91400000D02*
X154400000Y-89300000D01*
X156590000Y-87700000D02*
X156000000Y-87700000D01*
X153100000Y-92700000D02*
X154400000Y-91400000D01*
X150300000Y-92700000D02*
X153100000Y-92700000D01*
%TO.N,GND*%
X108970000Y-83330000D02*
X109575000Y-83935000D01*
X107350000Y-83330000D02*
X108970000Y-83330000D01*
D40*
%TO.N,/power/V_FUSED*%
X106875000Y-93965000D02*
X106875000Y-95235000D01*
D41*
%TO.N,GND*%
X148250000Y-89400000D02*
X149350000Y-89400000D01*
X149350000Y-90500000D02*
X148250000Y-90500000D01*
X149900000Y-89950000D02*
X149350000Y-90500000D01*
X149900000Y-88850000D02*
X149900000Y-89950000D01*
X149350000Y-88300000D02*
X149900000Y-88850000D01*
X148250000Y-88300000D02*
X149350000Y-88300000D01*
X128800000Y-90100000D02*
X128000000Y-89300000D01*
X129400000Y-90100000D02*
X128800000Y-90100000D01*
X123500000Y-89300000D02*
X123800000Y-89000000D01*
X120850000Y-89300000D02*
X123500000Y-89300000D01*
D40*
%TO.N,Net-(U3-FB)*%
X114887500Y-98250000D02*
X114887500Y-101200000D01*
%TO.N,GND*%
X116812500Y-101300000D02*
X116712500Y-101200000D01*
X119144643Y-101300000D02*
X116812500Y-101300000D01*
D41*
%TO.N,Net-(U3-VCC)*%
X118099000Y-99251000D02*
X118750000Y-98600000D01*
X116214840Y-99251000D02*
X118099000Y-99251000D01*
X115899000Y-97659000D02*
X115899000Y-98935160D01*
X115899000Y-98935160D02*
X116214840Y-99251000D01*
X113475000Y-95235000D02*
X115899000Y-97659000D01*
X112625000Y-95235000D02*
X113475000Y-95235000D01*
D40*
%TO.N,Net-(U3-FB)*%
X112625000Y-96505000D02*
X113142500Y-96505000D01*
X113142500Y-96505000D02*
X114887500Y-98250000D01*
%TO.N,Net-(U3-BOOT)*%
X112625000Y-93965000D02*
X115685000Y-93965000D01*
X115685000Y-93965000D02*
X115800000Y-93850000D01*
%TO.N,Net-(U3-SW)*%
X113370000Y-91950000D02*
X112625000Y-92695000D01*
X115800000Y-91950000D02*
X113370000Y-91950000D01*
X119150000Y-91950000D02*
X120800000Y-93600000D01*
X115800000Y-91950000D02*
X119150000Y-91950000D01*
%TO.N,GND*%
X119144643Y-100105357D02*
X120650000Y-98600000D01*
X119144643Y-101300000D02*
X119144643Y-100105357D01*
%TO.N,+12V*%
X119162500Y-95800000D02*
X120800000Y-95800000D01*
X116712500Y-98250000D02*
X119162500Y-95800000D01*
X126200000Y-91780000D02*
X126200000Y-97800000D01*
X125190000Y-95800000D02*
X126200000Y-94790000D01*
X120800000Y-95800000D02*
X125190000Y-95800000D01*
%TO.N,GND*%
X67699000Y-90380314D02*
X73318686Y-96000000D01*
X73318686Y-96000000D02*
X77400000Y-96000000D01*
X67699000Y-87701000D02*
X67699000Y-90380314D01*
X69100000Y-86300000D02*
X67699000Y-87701000D01*
%TO.N,Net-(J11-Pin_1)*%
X75910000Y-89800000D02*
X80670000Y-85040000D01*
X74100000Y-89800000D02*
X75910000Y-89800000D01*
%TO.N,GND*%
X74100000Y-86300000D02*
X69100000Y-86300000D01*
%TO.N,Net-(J11-Pin_1)*%
X74100000Y-89800000D02*
X69100000Y-89800000D01*
%TO.N,GND*%
X84914286Y-104700000D02*
X84914286Y-107185714D01*
X84914286Y-107185714D02*
X84100000Y-108000000D01*
X96328571Y-107571429D02*
X95900000Y-108000000D01*
X96328571Y-104700000D02*
X96328571Y-107571429D01*
X107742857Y-106357143D02*
X106100000Y-108000000D01*
X107742857Y-104700000D02*
X107742857Y-106357143D01*
X119157143Y-104700000D02*
X119157143Y-107342857D01*
X119157143Y-107342857D02*
X118500000Y-108000000D01*
X130571429Y-107528571D02*
X130100000Y-108000000D01*
X130571429Y-104700000D02*
X130571429Y-107528571D01*
X141985714Y-104700000D02*
X141985714Y-107614286D01*
X141985714Y-107614286D02*
X141600000Y-108000000D01*
X73500000Y-104700000D02*
X73500000Y-108000000D01*
X107730357Y-101300000D02*
X109750000Y-99280357D01*
X109750000Y-99280357D02*
X109750000Y-94600000D01*
X96316071Y-97383929D02*
X96600000Y-97100000D01*
X96316071Y-101300000D02*
X96316071Y-97383929D01*
X84901786Y-95801786D02*
X84500000Y-95400000D01*
X84901786Y-101300000D02*
X84901786Y-95801786D01*
X73487500Y-99912500D02*
X73487500Y-101300000D01*
X77400000Y-96000000D02*
X73487500Y-99912500D01*
X99400000Y-90600000D02*
X98000000Y-89200000D01*
X99400000Y-91025000D02*
X99400000Y-90600000D01*
D41*
%TO.N,+3.3V*%
X125700000Y-88900000D02*
X126100000Y-89300000D01*
X124800000Y-88900000D02*
X125700000Y-88900000D01*
X131487500Y-88500000D02*
X129800000Y-88500000D01*
X129800000Y-88500000D02*
X129700000Y-88600000D01*
X131487500Y-87522500D02*
X133200000Y-85810000D01*
X131487500Y-88500000D02*
X131487500Y-87522500D01*
D40*
%TO.N,GND*%
X131450000Y-91950000D02*
X130100000Y-93300000D01*
X131450000Y-91100000D02*
X131450000Y-91950000D01*
D41*
%TO.N,/IO9*%
X167400000Y-90500000D02*
X166500000Y-89600000D01*
X167400000Y-90600000D02*
X167400000Y-90500000D01*
X146100000Y-96250057D02*
X146100000Y-97400000D01*
X139090000Y-93700000D02*
X143549943Y-93700000D01*
X143549943Y-93700000D02*
X146100000Y-96250057D01*
D40*
%TO.N,+12V*%
X126651000Y-98251000D02*
X126200000Y-97800000D01*
X125700000Y-121200000D02*
X126651000Y-120249000D01*
X125700000Y-121200000D02*
X125100000Y-121200000D01*
X126651000Y-120249000D02*
X126651000Y-98251000D01*
X145385714Y-118800000D02*
X147785714Y-121200000D01*
X148500000Y-121200000D02*
X136300000Y-121200000D01*
X147785714Y-121200000D02*
X148500000Y-121200000D01*
X136300000Y-121128571D02*
X136300000Y-121200000D01*
X136300000Y-121200000D02*
X125700000Y-121200000D01*
X133971429Y-118800000D02*
X136300000Y-121128571D01*
X124957143Y-121200000D02*
X125100000Y-121200000D01*
X122557143Y-118800000D02*
X124957143Y-121200000D01*
X125100000Y-121200000D02*
X114000000Y-121200000D01*
X111142857Y-118800000D02*
X113542857Y-121200000D01*
X113542857Y-121200000D02*
X114000000Y-121200000D01*
X154400000Y-121200000D02*
X148500000Y-121200000D01*
X102128571Y-121200000D02*
X102900000Y-121200000D01*
X99728571Y-118800000D02*
X102128571Y-121200000D01*
X102900000Y-121200000D02*
X91000000Y-121200000D01*
X90714286Y-121200000D02*
X91000000Y-121200000D01*
X88314286Y-118800000D02*
X90714286Y-121200000D01*
X91000000Y-121200000D02*
X79300000Y-121200000D01*
X79300000Y-121200000D02*
X76900000Y-118800000D01*
X114000000Y-121200000D02*
X102900000Y-121200000D01*
X156800000Y-118800000D02*
X154400000Y-121200000D01*
%TO.N,GND*%
X131630000Y-83280000D02*
X131650000Y-83300000D01*
X128000000Y-83280000D02*
X131630000Y-83280000D01*
X130770000Y-91780000D02*
X131450000Y-91100000D01*
X128100000Y-91780000D02*
X130770000Y-91780000D01*
X128100000Y-91780000D02*
X128100000Y-97800000D01*
X128000000Y-91680000D02*
X128100000Y-91780000D01*
X128000000Y-89300000D02*
X128000000Y-91680000D01*
X128000000Y-83280000D02*
X128000000Y-89300000D01*
%TO.N,+3.3V*%
X118325000Y-90500000D02*
X124900000Y-90500000D01*
X124900000Y-90500000D02*
X126100000Y-89300000D01*
X117125000Y-89300000D02*
X118325000Y-90500000D01*
X126090000Y-86300000D02*
X126100000Y-86290000D01*
X120800000Y-86300000D02*
X126090000Y-86300000D01*
X126100000Y-89300000D02*
X126100000Y-83280000D01*
%TO.N,GND*%
X130558929Y-100258929D02*
X128100000Y-97800000D01*
X130558929Y-101300000D02*
X130558929Y-100258929D01*
X153400000Y-105100000D02*
X150900000Y-107600000D01*
X153400000Y-104700000D02*
X153400000Y-105100000D01*
X141973214Y-97026786D02*
X144000000Y-95000000D01*
X141973214Y-101300000D02*
X141973214Y-97026786D01*
D41*
X151500000Y-101000000D02*
X151800000Y-101300000D01*
X151800000Y-101300000D02*
X153387500Y-101300000D01*
X143800000Y-95200000D02*
X144000000Y-95000000D01*
X139090000Y-95200000D02*
X143800000Y-95200000D01*
X131650000Y-83300000D02*
X131650000Y-85810000D01*
%TO.N,+3.3V*%
X158800000Y-88800000D02*
X165800000Y-95800000D01*
X158800000Y-83600000D02*
X158800000Y-88800000D01*
X151000000Y-83200000D02*
X151400000Y-83600000D01*
X139090000Y-83200000D02*
X151000000Y-83200000D01*
%TO.N,/CHIP_PU*%
X166400000Y-84000000D02*
X166400000Y-84875000D01*
X151500000Y-84700000D02*
X151600000Y-84600000D01*
X166400000Y-84875000D02*
X166500000Y-84975000D01*
X139090000Y-84700000D02*
X151500000Y-84700000D01*
%TO.N,/c5*%
X136172429Y-101111500D02*
X135171429Y-102112500D01*
X136172429Y-93317571D02*
X136172429Y-101111500D01*
X138790000Y-90700000D02*
X136172429Y-93317571D01*
X139090000Y-90700000D02*
X138790000Y-90700000D01*
%TO.N,/c4*%
X125900000Y-99969643D02*
X123757143Y-102112500D01*
X125900000Y-99600000D02*
X125900000Y-99969643D01*
X132600000Y-95390000D02*
X132600000Y-97500000D01*
X138790000Y-89200000D02*
X132600000Y-95390000D01*
X139090000Y-89200000D02*
X138790000Y-89200000D01*
%TO.N,/c3*%
X113500000Y-100955357D02*
X112342857Y-102112500D01*
X113500000Y-98600000D02*
X113500000Y-100955357D01*
X113100000Y-98200000D02*
X113500000Y-98600000D01*
X131000000Y-94961160D02*
X131000000Y-96600000D01*
X138261160Y-87700000D02*
X131000000Y-94961160D01*
X139090000Y-87700000D02*
X138261160Y-87700000D01*
%TO.N,/c2*%
X101929571Y-101111500D02*
X100928571Y-102112500D01*
X101929571Y-99789840D02*
X101929571Y-101111500D01*
X93044000Y-93071000D02*
X95210731Y-93071000D01*
X92300000Y-92327000D02*
X93044000Y-93071000D01*
X95210731Y-93071000D02*
X101929571Y-99789840D01*
X92300000Y-85900000D02*
X92300000Y-92327000D01*
X140700000Y-86200000D02*
X141000000Y-85900000D01*
X139090000Y-86200000D02*
X140700000Y-86200000D01*
%TO.N,/c1*%
X91100000Y-100526786D02*
X89514286Y-102112500D01*
X91100000Y-94100000D02*
X91100000Y-100526786D01*
%TO.N,/c0*%
X83300000Y-96912500D02*
X78100000Y-102112500D01*
X83300000Y-89700000D02*
X83300000Y-96912500D01*
X153500000Y-86200000D02*
X153400000Y-86300000D01*
X156590000Y-86200000D02*
X153500000Y-86200000D01*
%TO.N,/c6*%
X145800000Y-92200000D02*
X139090000Y-92200000D01*
X147586714Y-101111500D02*
X147586714Y-93986714D01*
X147586714Y-93986714D02*
X145800000Y-92200000D01*
X146585714Y-102112500D02*
X147586714Y-101111500D01*
%TO.N,/c7*%
X159001000Y-97611000D02*
X156590000Y-95200000D01*
X159001000Y-101111500D02*
X159001000Y-97611000D01*
X158000000Y-102112500D02*
X159001000Y-101111500D01*
%TO.N,/RXD*%
X158620000Y-93700000D02*
X165800000Y-100880000D01*
X156590000Y-93700000D02*
X158620000Y-93700000D01*
%TO.N,/TXD*%
X159660000Y-92200000D02*
X165800000Y-98340000D01*
X156590000Y-92200000D02*
X159660000Y-92200000D01*
%TO.N,/RTS*%
X167352000Y-91897532D02*
X167352000Y-104408000D01*
X165403468Y-89949000D02*
X167352000Y-91897532D01*
X162036500Y-89949000D02*
X165403468Y-89949000D01*
X160687500Y-88600000D02*
X162036500Y-89949000D01*
X167352000Y-104408000D02*
X165800000Y-105960000D01*
%TO.N,/DTR*%
X166951000Y-102269000D02*
X165800000Y-103420000D01*
X166951000Y-92876000D02*
X166951000Y-102269000D01*
X164625000Y-90550000D02*
X166951000Y-92876000D01*
%TO.N,Net-(Q9-B)*%
X161100000Y-83975000D02*
X164575000Y-83975000D01*
X164575000Y-83975000D02*
X164625000Y-84025000D01*
%TO.N,/DTR*%
X161138840Y-90550000D02*
X164625000Y-90550000D01*
X159874000Y-89285160D02*
X161138840Y-90550000D01*
X159874000Y-87026000D02*
X159874000Y-89285160D01*
X161100000Y-85800000D02*
X159874000Y-87026000D01*
%TO.N,/RTS*%
X163362500Y-85925000D02*
X160687500Y-88600000D01*
X164625000Y-85925000D02*
X163362500Y-85925000D01*
%TO.N,Net-(Q10-B)*%
X164575000Y-88600000D02*
X164625000Y-88650000D01*
X162512500Y-88600000D02*
X164575000Y-88600000D01*
%TO.N,/CHIP_PU*%
X134990000Y-88500000D02*
X133312500Y-88500000D01*
X138790000Y-84700000D02*
X134990000Y-88500000D01*
X139090000Y-84700000D02*
X138790000Y-84700000D01*
%TO.N,+3.3V*%
X138990000Y-83300000D02*
X139090000Y-83200000D01*
X133200000Y-83300000D02*
X138990000Y-83300000D01*
X133200000Y-85810000D02*
X133200000Y-83300000D01*
%TO.N,/CHIP_PU*%
X133350000Y-88537500D02*
X133312500Y-88500000D01*
X133350000Y-91100000D02*
X133350000Y-88537500D01*
D40*
%TO.N,GND*%
X110225000Y-88037500D02*
X111487500Y-89300000D01*
X110225000Y-85235000D02*
X110225000Y-88037500D01*
D41*
X109750000Y-91037500D02*
X109750000Y-94600000D01*
X111487500Y-89300000D02*
X109750000Y-91037500D01*
D40*
X107845000Y-92695000D02*
X109750000Y-94600000D01*
X106875000Y-92695000D02*
X107845000Y-92695000D01*
X102850000Y-90500000D02*
X102400000Y-90950000D01*
X102850000Y-86100000D02*
X102850000Y-90500000D01*
X99500000Y-86100000D02*
X102850000Y-86100000D01*
X104145000Y-92695000D02*
X102400000Y-90950000D01*
X106875000Y-92695000D02*
X104145000Y-92695000D01*
X102325000Y-91025000D02*
X102400000Y-90950000D01*
X99400000Y-91025000D02*
X102325000Y-91025000D01*
%TO.N,/power/V_FUSED*%
X102465000Y-93965000D02*
X102400000Y-93900000D01*
X106875000Y-93965000D02*
X102465000Y-93965000D01*
X95366000Y-86276000D02*
X94130000Y-85040000D01*
X95366000Y-89941000D02*
X95366000Y-86276000D01*
X99400000Y-93975000D02*
X95366000Y-89941000D01*
X99475000Y-93900000D02*
X99400000Y-93975000D01*
X102400000Y-93900000D02*
X99475000Y-93900000D01*
X99500000Y-83150000D02*
X96020000Y-83150000D01*
X96020000Y-83150000D02*
X94130000Y-85040000D01*
X102850000Y-83150000D02*
X99500000Y-83150000D01*
X104300000Y-84600000D02*
X102850000Y-83150000D01*
X107350000Y-84600000D02*
X104300000Y-84600000D01*
X107350000Y-85870000D02*
X107350000Y-84600000D01*
D41*
%TO.N,Net-(U2-SW)*%
X119850000Y-83150000D02*
X120800000Y-84100000D01*
X116200000Y-83150000D02*
X119850000Y-83150000D01*
%TO.N,Net-(U2-FB)*%
X115300000Y-89300000D02*
X113312500Y-89300000D01*
%TO.N,GND*%
X111487500Y-87147500D02*
X110875000Y-86535000D01*
X111487500Y-89300000D02*
X111487500Y-87147500D01*
%TO.N,Net-(U2-FB)*%
X113100000Y-89087500D02*
X113312500Y-89300000D01*
X113100000Y-87140000D02*
X113100000Y-89087500D01*
%TO.N,Net-(U2-SW)*%
X116020000Y-83330000D02*
X116200000Y-83150000D01*
X113100000Y-83330000D02*
X116020000Y-83330000D01*
%TO.N,Net-(U2-BOOT)*%
X113550000Y-85050000D02*
X113100000Y-84600000D01*
X116200000Y-85050000D02*
X113550000Y-85050000D01*
%TO.N,Net-(U2-VCC)*%
X115870000Y-86220000D02*
X118950000Y-89300000D01*
X115870000Y-85870000D02*
X115870000Y-86220000D01*
X113100000Y-85870000D02*
X115870000Y-85870000D01*
D40*
%TO.N,GND*%
X96316071Y-101300000D02*
X96316071Y-104687500D01*
%TO.N,+12V*%
X99478571Y-118550000D02*
X99728571Y-118800000D01*
%TO.N,Net-(D3-A)*%
X98628571Y-104700000D02*
X98628571Y-111000000D01*
X97728571Y-114550000D02*
X97728571Y-118800000D01*
%TO.N,+12V*%
X99728571Y-118800000D02*
X99728571Y-114000000D01*
%TO.N,Net-(D3-A)*%
X97453571Y-114275000D02*
X97728571Y-114550000D01*
%TO.N,GND*%
X96316071Y-104687500D02*
X96328571Y-104700000D01*
%TO.N,+12V*%
X99728571Y-114000000D02*
X99828571Y-113900000D01*
%TO.N,Net-(D3-A)*%
X97453571Y-113900000D02*
X97453571Y-114275000D01*
D41*
%TO.N,Net-(Q3-G)*%
X98141071Y-101300000D02*
X98141071Y-101912500D01*
X98141071Y-101912500D02*
X100928571Y-104700000D01*
X99916071Y-101300000D02*
X100928571Y-100287500D01*
X98141071Y-101300000D02*
X99916071Y-101300000D01*
D40*
%TO.N,Net-(D3-A)*%
X98628571Y-111000000D02*
X97453571Y-112175000D01*
X97453571Y-112175000D02*
X97453571Y-113900000D01*
%TO.N,+12V*%
X145135714Y-118550000D02*
X145385714Y-118800000D01*
%TO.N,Net-(D7-A)*%
X144285714Y-104700000D02*
X144285714Y-111000000D01*
X143385714Y-114550000D02*
X143385714Y-118800000D01*
X143110714Y-114275000D02*
X143385714Y-114550000D01*
%TO.N,GND*%
X141973214Y-104687500D02*
X141985714Y-104700000D01*
%TO.N,+12V*%
X145385714Y-118800000D02*
X145385714Y-114000000D01*
%TO.N,GND*%
X141973214Y-101300000D02*
X141973214Y-104687500D01*
%TO.N,+12V*%
X145385714Y-114000000D02*
X145485714Y-113900000D01*
%TO.N,Net-(D7-A)*%
X143110714Y-113900000D02*
X143110714Y-114275000D01*
D41*
%TO.N,Net-(Q7-G)*%
X143798214Y-101300000D02*
X143798214Y-101912500D01*
X143798214Y-101912500D02*
X146585714Y-104700000D01*
X145573214Y-101300000D02*
X146585714Y-100287500D01*
X143798214Y-101300000D02*
X145573214Y-101300000D01*
D40*
%TO.N,Net-(D7-A)*%
X144285714Y-111000000D02*
X143110714Y-112175000D01*
X143110714Y-112175000D02*
X143110714Y-113900000D01*
%TO.N,GND*%
X153387500Y-101300000D02*
X153387500Y-104687500D01*
%TO.N,+12V*%
X156550000Y-118550000D02*
X156800000Y-118800000D01*
%TO.N,Net-(D8-A)*%
X154525000Y-114275000D02*
X154800000Y-114550000D01*
X155700000Y-104700000D02*
X155700000Y-111000000D01*
X154800000Y-114550000D02*
X154800000Y-118800000D01*
%TO.N,GND*%
X153387500Y-104687500D02*
X153400000Y-104700000D01*
%TO.N,+12V*%
X156800000Y-118800000D02*
X156800000Y-114000000D01*
X156800000Y-114000000D02*
X156900000Y-113900000D01*
%TO.N,Net-(D8-A)*%
X154525000Y-113900000D02*
X154525000Y-114275000D01*
D41*
%TO.N,Net-(Q8-G)*%
X155212500Y-101912500D02*
X158000000Y-104700000D01*
X155212500Y-101300000D02*
X155212500Y-101912500D01*
X156987500Y-101300000D02*
X158000000Y-100287500D01*
D40*
%TO.N,Net-(D8-A)*%
X154525000Y-112175000D02*
X154525000Y-113900000D01*
D41*
%TO.N,Net-(Q8-G)*%
X155212500Y-101300000D02*
X156987500Y-101300000D01*
D40*
%TO.N,Net-(D8-A)*%
X155700000Y-111000000D02*
X154525000Y-112175000D01*
%TO.N,Net-(D2-A)*%
X87214286Y-104700000D02*
X87214286Y-111000000D01*
%TO.N,+12V*%
X88064286Y-118550000D02*
X88314286Y-118800000D01*
%TO.N,Net-(D2-A)*%
X86314286Y-114550000D02*
X86314286Y-118800000D01*
%TO.N,GND*%
X84901786Y-101300000D02*
X84901786Y-104687500D01*
%TO.N,Net-(D2-A)*%
X86039286Y-114275000D02*
X86314286Y-114550000D01*
%TO.N,+12V*%
X88314286Y-118800000D02*
X88314286Y-114000000D01*
%TO.N,GND*%
X84901786Y-104687500D02*
X84914286Y-104700000D01*
%TO.N,Net-(D2-A)*%
X86039286Y-112175000D02*
X86039286Y-113900000D01*
%TO.N,+12V*%
X88314286Y-114000000D02*
X88414286Y-113900000D01*
%TO.N,Net-(D2-A)*%
X86039286Y-113900000D02*
X86039286Y-114275000D01*
D41*
%TO.N,Net-(Q2-G)*%
X86726786Y-101300000D02*
X86726786Y-101912500D01*
X86726786Y-101912500D02*
X89514286Y-104700000D01*
X88501786Y-101300000D02*
X89514286Y-100287500D01*
X86726786Y-101300000D02*
X88501786Y-101300000D01*
D40*
%TO.N,Net-(D2-A)*%
X87214286Y-111000000D02*
X86039286Y-112175000D01*
%TO.N,+12V*%
X76650000Y-118550000D02*
X76900000Y-118800000D01*
%TO.N,Net-(D1-A)*%
X74900000Y-114550000D02*
X74900000Y-118800000D01*
%TO.N,+12V*%
X76900000Y-118800000D02*
X76900000Y-114000000D01*
%TO.N,Net-(D5-A)*%
X121457143Y-104700000D02*
X121457143Y-111000000D01*
%TO.N,GND*%
X119144643Y-104687500D02*
X119157143Y-104700000D01*
X119144643Y-101300000D02*
X119144643Y-104687500D01*
%TO.N,+12V*%
X122307143Y-118550000D02*
X122557143Y-118800000D01*
%TO.N,Net-(D5-A)*%
X120557143Y-114550000D02*
X120557143Y-118800000D01*
D41*
%TO.N,Net-(Q5-G)*%
X120969643Y-101300000D02*
X120969643Y-101912500D01*
D40*
%TO.N,+12V*%
X122557143Y-118800000D02*
X122557143Y-114000000D01*
%TO.N,Net-(D5-A)*%
X120282143Y-114275000D02*
X120557143Y-114550000D01*
%TO.N,+12V*%
X122557143Y-114000000D02*
X122657143Y-113900000D01*
%TO.N,Net-(D5-A)*%
X120282143Y-113900000D02*
X120282143Y-114275000D01*
D41*
%TO.N,Net-(Q5-G)*%
X120969643Y-101912500D02*
X123757143Y-104700000D01*
X122744643Y-101300000D02*
X123757143Y-100287500D01*
X120969643Y-101300000D02*
X122744643Y-101300000D01*
D40*
%TO.N,Net-(D5-A)*%
X121457143Y-111000000D02*
X120282143Y-112175000D01*
X120282143Y-112175000D02*
X120282143Y-113900000D01*
%TO.N,Net-(D4-A)*%
X108867857Y-113900000D02*
X108867857Y-114275000D01*
X108867857Y-114275000D02*
X109142857Y-114550000D01*
%TO.N,GND*%
X107730357Y-101300000D02*
X107730357Y-104687500D01*
%TO.N,+12V*%
X110892857Y-118550000D02*
X111142857Y-118800000D01*
%TO.N,Net-(D4-A)*%
X110042857Y-104700000D02*
X110042857Y-111000000D01*
X109142857Y-114550000D02*
X109142857Y-118800000D01*
%TO.N,+12V*%
X111142857Y-118800000D02*
X111142857Y-114000000D01*
%TO.N,GND*%
X107730357Y-104687500D02*
X107742857Y-104700000D01*
%TO.N,+12V*%
X111142857Y-114000000D02*
X111242857Y-113900000D01*
D41*
%TO.N,Net-(Q4-G)*%
X109555357Y-101300000D02*
X109555357Y-101912500D01*
X109555357Y-101912500D02*
X112342857Y-104700000D01*
X111330357Y-101300000D02*
X112342857Y-100287500D01*
X109555357Y-101300000D02*
X111330357Y-101300000D01*
D40*
%TO.N,Net-(D4-A)*%
X110042857Y-111000000D02*
X108867857Y-112175000D01*
X108867857Y-112175000D02*
X108867857Y-113900000D01*
D41*
%TO.N,Net-(Q6-G)*%
X132383929Y-101912500D02*
X135171429Y-104700000D01*
D40*
%TO.N,+12V*%
X133721429Y-118550000D02*
X133971429Y-118800000D01*
%TO.N,Net-(D6-A)*%
X132871429Y-104700000D02*
X132871429Y-111000000D01*
%TO.N,+12V*%
X133971429Y-118800000D02*
X133971429Y-114000000D01*
%TO.N,Net-(D6-A)*%
X131971429Y-114550000D02*
X131971429Y-118800000D01*
%TO.N,GND*%
X130558929Y-101300000D02*
X130558929Y-104687500D01*
%TO.N,Net-(D6-A)*%
X131696429Y-114275000D02*
X131971429Y-114550000D01*
%TO.N,GND*%
X130558929Y-104687500D02*
X130571429Y-104700000D01*
%TO.N,+12V*%
X133971429Y-114000000D02*
X134071429Y-113900000D01*
%TO.N,Net-(D6-A)*%
X131696429Y-113900000D02*
X131696429Y-114275000D01*
D41*
%TO.N,Net-(Q6-G)*%
X134158929Y-101300000D02*
X135171429Y-100287500D01*
X132383929Y-101300000D02*
X132383929Y-101912500D01*
X132383929Y-101300000D02*
X134158929Y-101300000D01*
D40*
%TO.N,Net-(D6-A)*%
X132871429Y-111000000D02*
X131696429Y-112175000D01*
X131696429Y-112175000D02*
X131696429Y-113900000D01*
%TO.N,Net-(D1-A)*%
X74625000Y-114275000D02*
X74900000Y-114550000D01*
X74625000Y-113900000D02*
X74625000Y-114275000D01*
%TO.N,+12V*%
X76900000Y-114000000D02*
X77000000Y-113900000D01*
%TO.N,Net-(D1-A)*%
X74625000Y-112175000D02*
X74625000Y-113900000D01*
X75800000Y-111000000D02*
X74625000Y-112175000D01*
X75800000Y-104700000D02*
X75800000Y-111000000D01*
%TO.N,GND*%
X73487500Y-104687500D02*
X73500000Y-104700000D01*
X73487500Y-101300000D02*
X73487500Y-104687500D01*
D41*
%TO.N,Net-(Q1-G)*%
X75312500Y-101912500D02*
X78100000Y-104700000D01*
X75312500Y-101300000D02*
X75312500Y-101912500D01*
X77087500Y-101300000D02*
X78100000Y-100287500D01*
X75312500Y-101300000D02*
X77087500Y-101300000D01*
%TD*%
%TA.AperFunction,Conductor*%
%TO.N,GND*%
G36*
X151315677Y-87019685D02*
G01*
X151336319Y-87036319D01*
X151663681Y-87363681D01*
X151697166Y-87425004D01*
X151700000Y-87451362D01*
X151700000Y-91248638D01*
X151680315Y-91315677D01*
X151663681Y-91336319D01*
X151436319Y-91563681D01*
X151374996Y-91597166D01*
X151348638Y-91600000D01*
X147724500Y-91600000D01*
X147657461Y-91580315D01*
X147611706Y-91527511D01*
X147600500Y-91476000D01*
X147600500Y-91364367D01*
X147620185Y-91297328D01*
X147672989Y-91251573D01*
X147742147Y-91241629D01*
X147752403Y-91243574D01*
X147812155Y-91249999D01*
X147812172Y-91250000D01*
X147960000Y-91250000D01*
X148460000Y-91250000D01*
X148607828Y-91250000D01*
X148607844Y-91249999D01*
X148667377Y-91243597D01*
X148667378Y-91243597D01*
X148716665Y-91225214D01*
X148786356Y-91220228D01*
X148803335Y-91225214D01*
X148852621Y-91243597D01*
X148912155Y-91249999D01*
X148912172Y-91250000D01*
X149060000Y-91250000D01*
X149060000Y-90982842D01*
X149059999Y-90982841D01*
X149560000Y-90982841D01*
X149560000Y-91250000D01*
X149707828Y-91250000D01*
X149707844Y-91249999D01*
X149767377Y-91243597D01*
X149767378Y-91243597D01*
X149816665Y-91225214D01*
X149886356Y-91220228D01*
X149903335Y-91225214D01*
X149952621Y-91243597D01*
X150012155Y-91249999D01*
X150012172Y-91250000D01*
X150160000Y-91250000D01*
X150660000Y-91250000D01*
X150807828Y-91250000D01*
X150807844Y-91249999D01*
X150867372Y-91243598D01*
X150867379Y-91243596D01*
X151002086Y-91193354D01*
X151002093Y-91193350D01*
X151117187Y-91107190D01*
X151117190Y-91107187D01*
X151203350Y-90992093D01*
X151203354Y-90992086D01*
X151253596Y-90857379D01*
X151253598Y-90857372D01*
X151259999Y-90797844D01*
X151260000Y-90797827D01*
X151260000Y-90650000D01*
X150660000Y-90650000D01*
X150660000Y-91250000D01*
X150160000Y-91250000D01*
X150160000Y-90650000D01*
X149892841Y-90650000D01*
X149560000Y-90982841D01*
X149059999Y-90982841D01*
X148727158Y-90650000D01*
X148460000Y-90650000D01*
X148460000Y-91250000D01*
X147960000Y-91250000D01*
X147960000Y-90370163D01*
X148610000Y-90370163D01*
X148610000Y-90429837D01*
X148632836Y-90484968D01*
X148675032Y-90527164D01*
X148730163Y-90550000D01*
X148789837Y-90550000D01*
X148844968Y-90527164D01*
X148887164Y-90484968D01*
X148910000Y-90429837D01*
X148910000Y-90370163D01*
X149710000Y-90370163D01*
X149710000Y-90429837D01*
X149732836Y-90484968D01*
X149775032Y-90527164D01*
X149830163Y-90550000D01*
X149889837Y-90550000D01*
X149944968Y-90527164D01*
X149987164Y-90484968D01*
X150010000Y-90429837D01*
X150010000Y-90370163D01*
X149987164Y-90315032D01*
X149944968Y-90272836D01*
X149889837Y-90250000D01*
X149830163Y-90250000D01*
X149775032Y-90272836D01*
X149732836Y-90315032D01*
X149710000Y-90370163D01*
X148910000Y-90370163D01*
X148887164Y-90315032D01*
X148844968Y-90272836D01*
X148789837Y-90250000D01*
X148730163Y-90250000D01*
X148675032Y-90272836D01*
X148632836Y-90315032D01*
X148610000Y-90370163D01*
X147960000Y-90370163D01*
X147960000Y-89882842D01*
X147897321Y-89820163D01*
X148060000Y-89820163D01*
X148060000Y-89879837D01*
X148082836Y-89934968D01*
X148125032Y-89977164D01*
X148180163Y-90000000D01*
X148239837Y-90000000D01*
X148294968Y-89977164D01*
X148337164Y-89934968D01*
X148360000Y-89879837D01*
X148360000Y-89850000D01*
X148492842Y-89850000D01*
X148626406Y-89983564D01*
X148626421Y-89983578D01*
X148760000Y-90117157D01*
X148760001Y-90117157D01*
X148893578Y-89983579D01*
X149027157Y-89850000D01*
X149027157Y-89849999D01*
X148997321Y-89820163D01*
X149160000Y-89820163D01*
X149160000Y-89879837D01*
X149182836Y-89934968D01*
X149225032Y-89977164D01*
X149280163Y-90000000D01*
X149339837Y-90000000D01*
X149394968Y-89977164D01*
X149437164Y-89934968D01*
X149460000Y-89879837D01*
X149460000Y-89850000D01*
X149592842Y-89850000D01*
X149726406Y-89983564D01*
X149726421Y-89983578D01*
X149860000Y-90117157D01*
X149860001Y-90117157D01*
X149993578Y-89983579D01*
X150127157Y-89850000D01*
X150127157Y-89849999D01*
X150097321Y-89820163D01*
X150260000Y-89820163D01*
X150260000Y-89879837D01*
X150282836Y-89934968D01*
X150325032Y-89977164D01*
X150380163Y-90000000D01*
X150439837Y-90000000D01*
X150494968Y-89977164D01*
X150537164Y-89934968D01*
X150558756Y-89882841D01*
X150660000Y-89882841D01*
X150660000Y-90150000D01*
X151260000Y-90150000D01*
X151260000Y-90002172D01*
X151259999Y-90002155D01*
X151253597Y-89942622D01*
X151253597Y-89942621D01*
X151235214Y-89893335D01*
X151230228Y-89823644D01*
X151235214Y-89806665D01*
X151253597Y-89757378D01*
X151253597Y-89757377D01*
X151259999Y-89697844D01*
X151260000Y-89697827D01*
X151260000Y-89550000D01*
X150992842Y-89550000D01*
X150660000Y-89882841D01*
X150558756Y-89882841D01*
X150560000Y-89879837D01*
X150560000Y-89820163D01*
X150537164Y-89765032D01*
X150494968Y-89722836D01*
X150439837Y-89700000D01*
X150380163Y-89700000D01*
X150325032Y-89722836D01*
X150282836Y-89765032D01*
X150260000Y-89820163D01*
X150097321Y-89820163D01*
X149860000Y-89582842D01*
X149592842Y-89850000D01*
X149460000Y-89850000D01*
X149460000Y-89820163D01*
X149437164Y-89765032D01*
X149394968Y-89722836D01*
X149339837Y-89700000D01*
X149280163Y-89700000D01*
X149225032Y-89722836D01*
X149182836Y-89765032D01*
X149160000Y-89820163D01*
X148997321Y-89820163D01*
X148760000Y-89582842D01*
X148492842Y-89850000D01*
X148360000Y-89850000D01*
X148360000Y-89820163D01*
X148337164Y-89765032D01*
X148294968Y-89722836D01*
X148239837Y-89700000D01*
X148180163Y-89700000D01*
X148125032Y-89722836D01*
X148082836Y-89765032D01*
X148060000Y-89820163D01*
X147897321Y-89820163D01*
X147636819Y-89559661D01*
X147622115Y-89532733D01*
X147605523Y-89506915D01*
X147604631Y-89500714D01*
X147603334Y-89498338D01*
X147600500Y-89471980D01*
X147600500Y-89299999D01*
X147942841Y-89299999D01*
X147960000Y-89317156D01*
X147960000Y-89282842D01*
X147959999Y-89282841D01*
X147942841Y-89299999D01*
X147600500Y-89299999D01*
X147600500Y-89270163D01*
X148610000Y-89270163D01*
X148610000Y-89329837D01*
X148632836Y-89384968D01*
X148675032Y-89427164D01*
X148730163Y-89450000D01*
X148789837Y-89450000D01*
X148844968Y-89427164D01*
X148887164Y-89384968D01*
X148910000Y-89329837D01*
X148910000Y-89270163D01*
X149710000Y-89270163D01*
X149710000Y-89329837D01*
X149732836Y-89384968D01*
X149775032Y-89427164D01*
X149830163Y-89450000D01*
X149889837Y-89450000D01*
X149944968Y-89427164D01*
X149987164Y-89384968D01*
X150010000Y-89329837D01*
X150010000Y-89270163D01*
X149987164Y-89215032D01*
X149944968Y-89172836D01*
X149889837Y-89150000D01*
X149830163Y-89150000D01*
X149775032Y-89172836D01*
X149732836Y-89215032D01*
X149710000Y-89270163D01*
X148910000Y-89270163D01*
X148887164Y-89215032D01*
X148844968Y-89172836D01*
X148789837Y-89150000D01*
X148730163Y-89150000D01*
X148675032Y-89172836D01*
X148632836Y-89215032D01*
X148610000Y-89270163D01*
X147600500Y-89270163D01*
X147600500Y-89128019D01*
X147620185Y-89060980D01*
X147636819Y-89040338D01*
X147956993Y-88720163D01*
X148060000Y-88720163D01*
X148060000Y-88779837D01*
X148082836Y-88834968D01*
X148125032Y-88877164D01*
X148180163Y-88900000D01*
X148239837Y-88900000D01*
X148294968Y-88877164D01*
X148337164Y-88834968D01*
X148360000Y-88779837D01*
X148360000Y-88750000D01*
X148492842Y-88750000D01*
X148626406Y-88883564D01*
X148626421Y-88883578D01*
X148760000Y-89017157D01*
X148760001Y-89017157D01*
X148893578Y-88883579D01*
X149027157Y-88750000D01*
X149027157Y-88749999D01*
X148997321Y-88720163D01*
X149160000Y-88720163D01*
X149160000Y-88779837D01*
X149182836Y-88834968D01*
X149225032Y-88877164D01*
X149280163Y-88900000D01*
X149339837Y-88900000D01*
X149394968Y-88877164D01*
X149437164Y-88834968D01*
X149460000Y-88779837D01*
X149460000Y-88750000D01*
X149592842Y-88750000D01*
X149726406Y-88883564D01*
X149726421Y-88883578D01*
X149860000Y-89017157D01*
X149860001Y-89017157D01*
X149993578Y-88883579D01*
X150127157Y-88750000D01*
X150127157Y-88749999D01*
X150097321Y-88720163D01*
X150260000Y-88720163D01*
X150260000Y-88779837D01*
X150282836Y-88834968D01*
X150325032Y-88877164D01*
X150380163Y-88900000D01*
X150439837Y-88900000D01*
X150494968Y-88877164D01*
X150537164Y-88834968D01*
X150560000Y-88779837D01*
X150560000Y-88720163D01*
X150558755Y-88717157D01*
X150660000Y-88717157D01*
X150992843Y-89050000D01*
X151260000Y-89050000D01*
X151260000Y-88902172D01*
X151259999Y-88902155D01*
X151253597Y-88842622D01*
X151253597Y-88842621D01*
X151235214Y-88793335D01*
X151230228Y-88723644D01*
X151235214Y-88706665D01*
X151253597Y-88657378D01*
X151253597Y-88657377D01*
X151259999Y-88597844D01*
X151260000Y-88597827D01*
X151260000Y-88450000D01*
X150660000Y-88450000D01*
X150660000Y-88717157D01*
X150558755Y-88717157D01*
X150537164Y-88665032D01*
X150494968Y-88622836D01*
X150439837Y-88600000D01*
X150380163Y-88600000D01*
X150325032Y-88622836D01*
X150282836Y-88665032D01*
X150260000Y-88720163D01*
X150097321Y-88720163D01*
X149860000Y-88482842D01*
X149592842Y-88750000D01*
X149460000Y-88750000D01*
X149460000Y-88720163D01*
X149437164Y-88665032D01*
X149394968Y-88622836D01*
X149339837Y-88600000D01*
X149280163Y-88600000D01*
X149225032Y-88622836D01*
X149182836Y-88665032D01*
X149160000Y-88720163D01*
X148997321Y-88720163D01*
X148760000Y-88482842D01*
X148492842Y-88750000D01*
X148360000Y-88750000D01*
X148360000Y-88720163D01*
X148337164Y-88665032D01*
X148294968Y-88622836D01*
X148239837Y-88600000D01*
X148180163Y-88600000D01*
X148125032Y-88622836D01*
X148082836Y-88665032D01*
X148060000Y-88720163D01*
X147956993Y-88720163D01*
X147959999Y-88717157D01*
X147960000Y-88717156D01*
X147960000Y-88324000D01*
X147979685Y-88256961D01*
X148032489Y-88211206D01*
X148084000Y-88200000D01*
X148210000Y-88200000D01*
X148210000Y-88170163D01*
X148610000Y-88170163D01*
X148610000Y-88229837D01*
X148632836Y-88284968D01*
X148675032Y-88327164D01*
X148730163Y-88350000D01*
X148789837Y-88350000D01*
X148844968Y-88327164D01*
X148887164Y-88284968D01*
X148910000Y-88229837D01*
X148910000Y-88170163D01*
X149710000Y-88170163D01*
X149710000Y-88229837D01*
X149732836Y-88284968D01*
X149775032Y-88327164D01*
X149830163Y-88350000D01*
X149889837Y-88350000D01*
X149944968Y-88327164D01*
X149987164Y-88284968D01*
X150010000Y-88229837D01*
X150010000Y-88170163D01*
X149987164Y-88115032D01*
X149944968Y-88072836D01*
X149889837Y-88050000D01*
X149830163Y-88050000D01*
X149775032Y-88072836D01*
X149732836Y-88115032D01*
X149710000Y-88170163D01*
X148910000Y-88170163D01*
X148887164Y-88115032D01*
X148844968Y-88072836D01*
X148789837Y-88050000D01*
X148730163Y-88050000D01*
X148675032Y-88072836D01*
X148632836Y-88115032D01*
X148610000Y-88170163D01*
X148210000Y-88170163D01*
X148210000Y-88074000D01*
X148229685Y-88006961D01*
X148282489Y-87961206D01*
X148334000Y-87950000D01*
X148727158Y-87950000D01*
X148727158Y-87949999D01*
X149059999Y-87617157D01*
X149560000Y-87617157D01*
X149892841Y-87949999D01*
X149892842Y-87950000D01*
X150160000Y-87950000D01*
X150660000Y-87950000D01*
X151260000Y-87950000D01*
X151260000Y-87802172D01*
X151259999Y-87802155D01*
X151253598Y-87742627D01*
X151253596Y-87742620D01*
X151203354Y-87607913D01*
X151203350Y-87607906D01*
X151117190Y-87492812D01*
X151117187Y-87492809D01*
X151002093Y-87406649D01*
X151002086Y-87406645D01*
X150867379Y-87356403D01*
X150867372Y-87356401D01*
X150807844Y-87350000D01*
X150660000Y-87350000D01*
X150660000Y-87950000D01*
X150160000Y-87950000D01*
X150160000Y-87350000D01*
X150012155Y-87350000D01*
X149952627Y-87356401D01*
X149952619Y-87356403D01*
X149903333Y-87374786D01*
X149833641Y-87379770D01*
X149816667Y-87374786D01*
X149767380Y-87356403D01*
X149767372Y-87356401D01*
X149707844Y-87350000D01*
X149560000Y-87350000D01*
X149560000Y-87617157D01*
X149059999Y-87617157D01*
X149060000Y-87617156D01*
X149060000Y-87350000D01*
X148908851Y-87350000D01*
X148908851Y-87348952D01*
X148845078Y-87333864D01*
X148796577Y-87283571D01*
X148782966Y-87215040D01*
X148808566Y-87150029D01*
X148818772Y-87138462D01*
X148920918Y-87036316D01*
X148982239Y-87002834D01*
X149008597Y-87000000D01*
X151248638Y-87000000D01*
X151315677Y-87019685D01*
G37*
%TD.AperFunction*%
%TD*%
M02*
